<?xml version="1.0" encoding="utf-8"?>
<!-- Generator: Adobe Illustrator 25.0.0, SVG Export Plug-In . SVG Version: 6.00 Build 0)  -->
<svg version="1.1" id="Layer_1" xmlns="http://www.w3.org/2000/svg" xmlns:xlink="http://www.w3.org/1999/xlink" x="0px" y="0px"
	 viewBox="0 0 1242.87 293.97" style="enable-background:new 0 0 1242.87 293.97;" xml:space="preserve">
<style type="text/css">
	.st0{opacity:0.05;fill:url(#SVGID_1_);}
	.st1{fill:url(#SVGID_2_);}
	.st2{opacity:0.05;fill:url(#SVGID_3_);}
	.st3{fill:url(#SVGID_4_);}
	.st4{opacity:0.05;fill:url(#SVGID_5_);}
	.st5{fill:url(#SVGID_6_);}
	.st6{fill:#FFFFFF;}
	.st7{opacity:0.05;fill:#8F2222;}
	.st8{fill:url(#SVGID_7_);}
	.st9{opacity:0.75;}
	.st10{fill-rule:evenodd;clip-rule:evenodd;fill:#FFFFFF;}
	.st11{fill:#FFAA22;}
	.st12{fill:#243B41;}
	.st13{opacity:0.85;}
	.st14{opacity:0.35;}
	.st15{fill:none;stroke:#243B41;stroke-width:1.25;stroke-linecap:round;stroke-miterlimit:10;}
	.st16{opacity:0.1;fill:#243B41;}
	.st17{fill:url(#SVGID_8_);}
	.st18{fill:url(#SVGID_9_);}
	.st19{opacity:0.05;fill:url(#SVGID_10_);}
	.st20{fill:url(#SVGID_11_);}
	.st21{opacity:0.05;fill:url(#SVGID_12_);}
	.st22{fill:url(#SVGID_13_);}
	.st23{fill:#8D1F20;}
	.st24{fill:#243B41;stroke:#243B41;stroke-width:0.35;stroke-miterlimit:10;}
	.st25{fill:url(#SVGID_14_);}
	.st26{fill:url(#SVGID_15_);}
	.st27{fill:url(#SVGID_16_);}
	.st28{opacity:0.05;fill:url(#SVGID_17_);}
	.st29{fill:url(#SVGID_18_);}
	.st30{fill:url(#SVGID_19_);}
	.st31{fill:url(#SVGID_20_);}
	.st32{opacity:0.5;}
	.st33{opacity:0.3;}
	.st34{fill:#371A45;}
	.st35{opacity:0.4;}
	.st36{opacity:0.6;}
	.st37{fill:#9B5639;}
	.st38{fill:#A34F31;}
	.st39{fill:#FCC0B4;}
	.st40{fill:#FCF7FB;}
	.st41{fill:#6B184E;}
	.st42{fill:#181558;}
	.st43{fill:#8F2222;}
	.st44{fill:none;stroke:#FFFFFF;stroke-width:1.25;stroke-linecap:round;stroke-miterlimit:10;}
	.st45{fill:url(#SVGID_21_);}
	.st46{fill:none;stroke:#FFFFFF;stroke-miterlimit:10;}
	.st47{opacity:0.15;fill:#FFFFFF;}
	.st48{fill:none;stroke:#FFFFFF;stroke-width:0.5;stroke-miterlimit:10;}
	.st49{opacity:0.05;fill:url(#SVGID_22_);}
	.st50{fill:url(#SVGID_23_);}
	.st51{fill:url(#SVGID_24_);}
	.st52{fill:url(#SVGID_25_);}
	.st53{fill:#FFFFFF;stroke:#AFB9BF;stroke-width:0.5;stroke-miterlimit:10;}
	.st54{fill:none;stroke:#8F2222;stroke-width:2;stroke-miterlimit:10;}
	.st55{fill:url(#SVGID_26_);}
	.st56{fill:url(#SVGID_27_);}
	.st57{opacity:0.05;fill:url(#SVGID_28_);}
	.st58{fill:url(#SVGID_29_);}
	.st59{fill:url(#SVGID_30_);}
	.st60{opacity:0.25;fill:none;stroke:#19292D;stroke-width:0.5;stroke-miterlimit:10;}
	.st61{fill:url(#SVGID_31_);}
	.st62{clip-path:url(#SVGID_35_);}
	.st63{opacity:0.1;}
	.st64{fill:#8D9B9E;}
	.st65{fill:url(#SVGID_38_);}
	.st66{fill:#FBEAD0;}
	.st67{fill:#650000;}
	.st68{fill:#F5B945;}
	.st69{fill:#AD6F44;}
	.st70{opacity:0.25;}
	.st71{fill:#BE9577;}
	.st72{fill:#FDFFFE;}
	.st73{fill:#FCC59C;}
	.st74{fill:#792937;}
	.st75{fill:#33AEF1;}
	.st76{fill:#390075;}
	.st77{fill:#F9C710;}
	.st78{opacity:0.55;}
	.st79{fill:#F89F1D;}
	.st80{fill:#FF3E84;}
	.st81{fill:#FFD553;}
	.st82{fill:#FF9F40;}
	.st83{fill:#35B7EB;}
	.st84{fill:#96A7BC;}
	.st85{fill:#FF8661;}
	.st86{clip-path:url(#SVGID_42_);}
	.st87{fill:#F2F2F2;}
	.st88{opacity:0.2;}
	.st89{fill:#AD651E;}
	.st90{fill:#96C7FC;}
	.st91{clip-path:url(#SVGID_48_);}
	.st92{fill:#DDDDED;}
	.st93{fill:#000072;}
	.st94{fill:#AF6338;}
	.st95{opacity:0.15;}
	.st96{opacity:0.7;}
	.st97{fill:url(#SVGID_51_);}
	.st98{fill:none;stroke:#FFFFFF;stroke-width:1.4547;stroke-linecap:round;stroke-miterlimit:10;}
	.st99{clip-path:url(#SVGID_53_);}
	.st100{opacity:0.1;fill:#FFFFFF;}
	.st101{opacity:0.2;fill:#FFAA22;}
	.st102{opacity:0.05;fill:url(#SVGID_54_);}
	.st103{fill:url(#SVGID_55_);}
	.st104{fill:url(#SVGID_56_);}
	.st105{fill:url(#SVGID_57_);}
	.st106{fill:url(#SVGID_58_);}
	.st107{fill:url(#SVGID_59_);}
	.st108{clip-path:url(#SVGID_61_);}
	.st109{fill:url(#SVGID_62_);}
	.st110{opacity:0.05;fill:url(#SVGID_63_);}
	.st111{fill:url(#SVGID_64_);}
	.st112{fill:url(#SVGID_65_);}
	.st113{fill:url(#SVGID_66_);}
	.st114{clip-path:url(#SVGID_70_);}
	.st115{fill:url(#SVGID_73_);}
	.st116{clip-path:url(#SVGID_77_);}
	.st117{clip-path:url(#SVGID_83_);}
	.st118{fill:url(#SVGID_86_);}
	.st119{opacity:0.1;fill:#FFAA22;}
	.st120{clip-path:url(#SVGID_88_);}
	.st121{fill:url(#SVGID_89_);}
	.st122{fill:url(#SVGID_90_);}
	.st123{clip-path:url(#SVGID_92_);}
	.st124{fill:url(#SVGID_93_);}
	.st125{clip-path:url(#SVGID_95_);}
	.st126{fill:#E46C26;}
	.st127{fill:#EB8E32;}
	.st128{fill:#FADB7E;}
	.st129{fill:#DBE3EE;}
	.st130{fill:#FEC045;}
	.st131{fill:#F63F88;}
	.st132{fill:#FEFEFE;}
	.st133{fill:#F44051;}
	.st134{fill:#FF5722;}
	.st135{fill:#A7A9AC;}
	.st136{fill:#5E6C7A;}
	.st137{fill:#4089FF;}
	.st138{fill:#19AFF9;}
	.st139{fill:#F15A23;}
	.st140{fill:#0BD169;}
	.st141{opacity:0.45;}
	.st142{fill:#262F6A;}
	.st143{fill:#F4A13D;}
	.st144{fill:#E88023;}
	.st145{fill:url(#SVGID_96_);}
	.st146{clip-path:url(#SVGID_98_);}
	.st147{fill:url(#SVGID_99_);}
	.st148{opacity:0.05;fill:url(#SVGID_100_);}
	.st149{fill:url(#SVGID_101_);}
	.st150{fill:url(#SVGID_102_);}
	.st151{clip-path:url(#SVGID_106_);}
	.st152{clip-path:url(#SVGID_112_);}
	.st153{fill:url(#SVGID_115_);}
	.st154{fill:url(#SVGID_116_);}
	.st155{fill:url(#SVGID_117_);}
	.st156{clip-path:url(#SVGID_119_);}
	.st157{fill:url(#SVGID_120_);}
	.st158{fill:url(#SVGID_121_);}
	.st159{fill:url(#SVGID_122_);}
	.st160{fill:url(#SVGID_123_);}
	.st161{opacity:0.2;fill:none;stroke:#303C42;stroke-width:0.5138;stroke-miterlimit:10;}
	.st162{fill:none;stroke:#303C42;stroke-width:1.4547;stroke-linecap:round;stroke-miterlimit:10;}
	.st163{fill:#303C42;}
	.st164{fill:url(#SVGID_124_);}
	.st165{fill:none;stroke:#8F2222;stroke-width:1.25;stroke-miterlimit:10;}
	.st166{fill:url(#SVGID_125_);}
	.st167{fill:#8F2222;stroke:#8F2222;stroke-width:0.25;stroke-miterlimit:10;}
	.st168{fill:url(#SVGID_126_);}
	.st169{fill:url(#SVGID_127_);}
	.st170{fill:url(#SVGID_128_);}
	.st171{fill:url(#SVGID_129_);}
	.st172{fill:url(#SVGID_130_);}
	.st173{fill:url(#SVGID_131_);}
	.st174{fill:url(#SVGID_132_);}
	.st175{fill:url(#SVGID_133_);}
	.st176{fill:#434343;fill-opacity:0.05;stroke:#434343;stroke-miterlimit:10;}
	.st177{fill:url(#SVGID_134_);}
	.st178{fill:url(#SVGID_135_);}
	.st179{clip-path:url(#SVGID_137_);}
	.st180{fill:url(#SVGID_138_);}
	.st181{fill:url(#SVGID_139_);}
	.st182{fill:url(#SVGID_140_);}
	.st183{fill:url(#SVGID_141_);}
	.st184{fill:url(#SVGID_142_);}
	.st185{fill:url(#SVGID_143_);}
	.st186{fill:url(#SVGID_144_);}
	.st187{fill:url(#SVGID_145_);}
	.st188{fill:url(#SVGID_146_);}
	.st189{fill:url(#SVGID_147_);}
	.st190{fill:url(#SVGID_148_);}
	.st191{fill:url(#SVGID_149_);}
	.st192{fill:url(#SVGID_150_);}
	.st193{fill:url(#SVGID_151_);}
	.st194{fill:url(#SVGID_152_);}
	.st195{fill:url(#SVGID_153_);}
	.st196{fill:url(#SVGID_154_);}
	.st197{fill:url(#SVGID_155_);}
	.st198{fill:url(#SVGID_156_);}
	.st199{fill:url(#SVGID_157_);}
	.st200{fill:url(#SVGID_158_);}
	.st201{fill:url(#SVGID_159_);}
	.st202{fill:url(#SVGID_160_);}
	.st203{fill:url(#SVGID_161_);}
	.st204{fill:url(#SVGID_162_);}
	.st205{fill:url(#SVGID_163_);}
	.st206{fill:#B2262D;}
	.st207{fill:url(#SVGID_164_);}
	.st208{fill:url(#SVGID_165_);}
	.st209{fill:url(#SVGID_166_);}
	.st210{fill:url(#SVGID_167_);}
	.st211{fill:url(#SVGID_168_);}
	.st212{fill:url(#SVGID_169_);}
	.st213{fill:url(#SVGID_170_);}
	.st214{fill:url(#SVGID_171_);}
	.st215{fill:url(#SVGID_172_);}
	.st216{fill:url(#SVGID_173_);}
	.st217{fill:url(#SVGID_174_);}
	.st218{fill:url(#SVGID_175_);}
	.st219{fill:url(#SVGID_176_);}
	.st220{fill:url(#SVGID_177_);}
	.st221{fill:url(#SVGID_178_);}
	.st222{fill:url(#SVGID_179_);}
	.st223{fill:url(#SVGID_180_);}
	.st224{fill:url(#SVGID_181_);}
	.st225{clip-path:url(#SVGID_183_);}
	.st226{clip-path:url(#SVGID_185_);}
	.st227{clip-path:url(#SVGID_187_);}
</style>
<g>
	<defs>
		<rect id="SVGID_182_" width="1242.87" height="293.97"/>
	</defs>
	<clipPath id="SVGID_1_">
		<use xlink:href="#SVGID_182_"  style="overflow:visible;"/>
	</clipPath>
	<g style="clip-path:url(#SVGID_1_);">
		<g>
			<g>
				<g>
					<g>
						<path class="st87" d="M1098.99,184.8c-9.51-16.57-28.34-26.73-48.46-24.21l-12.63,1.58l5.88,81.85l2.17,30.27l18.49-2.31
							c26.73-3.34,45.76-27.8,42.42-54.53l-1.8-14.43C1104.23,196.4,1102.11,190.25,1098.99,184.8z M1048.56,252.43l-0.82-7.07
							l-7.19-62l12.63-1.58c15.04-1.88,28.81,8.83,30.69,23.88l1.8,14.43c1.88,15.05-8.83,28.81-23.87,30.69L1048.56,252.43z"/>
					</g>
				</g>
				<g class="st33">
					<path class="st67" d="M1105.06,203.01l1.8,14.43c3.34,26.73-15.69,51.2-42.42,54.53l-18.49,2.31l-2.17-30.27
						c1.32,0.41,2.65,0.87,3.96,1.35l0.82,7.07l12.02-1.5c0.35,0.18,0.55,0.28,0.55,0.28c36.23-4.02,45.87-32.77,37.62-66.24
						c0,0,0.09-0.06,0.25-0.16C1102.11,190.25,1104.23,196.4,1105.06,203.01z"/>
				</g>
				<g>
					<path class="st87" d="M1035.28,141.15l12.47,99.82c7.04,56.39-32.6,81.8-74.77,87.07c-4.49,0.56-9.01,0.89-13.52,0.97
						c-0.01,0-0.01,0-0.01,0c-37.74,0.65-74.07-16.59-80.36-66.97l-12.47-99.82c-0.89-7.15,36.14-17.66,82.71-23.47
						c19.26-2.41,37.14-3.63,51.54-3.73c10.54-0.08,19.23,0.44,25.24,1.54C1031.75,137.59,1035.02,139.13,1035.28,141.15z"/>
				</g>
				<g>
					<path class="st6" d="M976.06,327.62c-1.03,0.15-2.05,0.29-3.08,0.42c-4.49,0.56-9.01,0.89-13.52,0.97c-0.01,0-0.01,0-0.01,0
						c-37.74,0.65-74.07-16.59-80.36-66.97l-12.47-99.82c-0.89-7.15,36.14-17.66,82.71-23.47c1.03-0.13,2.05-0.25,3.07-0.37
						c-45.04,5.89-80.35,16.08-79.48,23.06l12.47,99.82c6.29,50.38,42.62,67.63,80.36,66.97c0,0,0,0,0.01,0
						C969.19,328.17,972.63,327.96,976.06,327.62z"/>
				</g>
				<g class="st33">
					<path class="st67" d="M1035.28,141.15l0.45,3.61c-0.32,1.2-0.55,1.97-0.55,1.97c-6.04-4.55-11.04,1.38-11.04,1.38l-3.93,2.67
						l-8.67-1.09c0,0-9.68-4.83-10.01-5.32c-0.33-0.49-1.41-5.96-1.02-8.14c0.07-0.4,0.19-0.8,0.37-1.21
						c10.54-0.08,19.23,0.44,25.24,1.54C1031.75,137.59,1035.02,139.13,1035.28,141.15z"/>
				</g>
				<g>
					<path class="st67" d="M955.18,331.27c-13.75-0.24-29.36-2.94-43.45-11.17c-19.79-11.55-31.52-30.99-34.87-57.78l-12.47-99.82
						c-0.39-3.12,1.8-8.04,25.17-14.67c15.73-4.46,36.86-8.48,59.49-11.31c22.63-2.83,44.1-4.13,60.44-3.67
						c24.29,0.68,27.62,4.91,28.01,8.03l0,0l12.47,99.82c3.35,26.79-3.24,48.52-19.58,64.58c-17.19,16.9-40.56,22.92-57.13,24.99
						C967.9,330.94,961.75,331.38,955.18,331.27z M1007.16,137.28c-15.83-0.28-36.21,1.03-57.55,3.69
						c-21.8,2.72-42.29,6.58-57.68,10.85c-18.49,5.13-22.93,9.07-23.08,10.15l12.47,99.79c8.61,68.95,72.12,66.46,91.38,64.06
						c19.26-2.41,81.43-15.61,72.82-84.57l-12.47-99.8c-0.45-1.02-5.75-3.73-24.86-4.15
						C1007.85,137.29,1007.5,137.29,1007.16,137.28z M1033.06,141.47C1033.06,141.47,1033.06,141.47,1033.06,141.47
						S1033.06,141.47,1033.06,141.47z"/>
				</g>
				<g>
					<g>
						<path class="st67" d="M1045.91,276.53c-1.1-0.02-2.04-0.84-2.18-1.97c-0.15-1.23,0.72-2.35,1.95-2.5l18.49-2.31
							c25.5-3.19,43.66-26.53,40.47-52.03l-1.8-14.43c-3.19-25.5-26.53-43.66-52.03-40.48l-12.63,1.58
							c-1.23,0.15-2.35-0.72-2.5-1.95c-0.15-1.23,0.72-2.35,1.95-2.5l12.63-1.58c27.96-3.49,53.54,16.41,57.03,44.37l1.8,14.43
							c3.49,27.96-16.41,53.55-44.37,57.04l-18.49,2.31C1046.13,276.52,1046.02,276.53,1045.91,276.53z"/>
					</g>
					<g>
						<path class="st67" d="M1048.51,254.67c-1.1-0.02-2.04-0.84-2.18-1.97c-0.15-1.23,0.72-2.35,1.95-2.5l13.24-1.65
							c6.68-0.83,12.64-4.23,16.79-9.56c4.15-5.33,5.97-11.95,5.13-18.63l-1.8-14.43c-0.83-6.68-4.23-12.65-9.56-16.79
							c-5.33-4.15-11.95-5.97-18.62-5.14l-12.63,1.58c-1.23,0.15-2.35-0.72-2.5-1.95c-0.15-1.23,0.72-2.35,1.95-2.5l12.63-1.58
							c7.87-0.98,15.66,1.16,21.94,6.05c6.28,4.88,10.27,11.91,11.26,19.78l1.8,14.43c0.98,7.87-1.16,15.66-6.04,21.94
							c-4.88,6.28-11.9,10.27-19.77,11.26l-13.24,1.65C1048.73,254.67,1048.62,254.68,1048.51,254.67z"/>
					</g>
				</g>
				<g>
					<path class="st67" d="M1018.2,151.04c0.71-2.16-0.78-4.5-2.69-5.73c-2.77-1.79-6.34-2.02-8.9-4.3
						c-0.63-0.56-1.15-1.24-1.46-2.01c-1.98-4.87,5.02-8.32,3.28-13.27c-0.39-1.11-1.18-2.04-2.17-2.69
						c-2.27-1.5-5.06-1.45-7.61-0.86c-2.6,0.59-5.06,1.71-7.67,2.24c-0.65,0.13-1.35,0.12-2.06,0c-3.15-0.52-5.56-3.01-6.37-6.1
						c-1.03-3.93-3.71-7.44-7.32-9.34c-4.55-2.4-10.38-2.15-14.71,0.63c-2.59,1.66-5.04,4.27-8.1,3.97
						c-2.16-0.21-3.88-1.85-5.9-2.66c-2.53-1.01-5.59-0.59-7.75,1.07c-2.16,1.66-3.06,5.11-3.69,7.76
						c-1.2,5.07-6.93,8.03-12.13,7.71c-5.2-0.32-9.89-3.15-14.1-6.22c-4.21-3.06-8.28-6.49-13.15-8.34
						c-6.08-2.31-13.14-1.86-18.88,1.19c-5.74,3.05-10.06,8.66-11.54,14.98c-1.62,6.92,0.08,14.28,3.28,20.62
						c3.2,6.34,7.82,11.84,12.4,17.27C929.01,172.17,974.86,167.32,1018.2,151.04z"/>
				</g>
				<g class="st78">
					<path class="st6" d="M982.22,117.26c-1.18-1.41-2.62-2.6-4.25-3.46c-4.54-2.4-10.38-2.15-14.7,0.63
						c-2.59,1.66-5.04,4.27-8.1,3.97c-2.16-0.21-3.88-1.85-5.9-2.66c-2.54-1.01-5.59-0.59-7.75,1.08c-2.16,1.66-3.06,5.11-3.69,7.77
						c-1.2,5.06-6.94,8.03-12.13,7.71c-5.2-0.32-9.89-3.15-14.1-6.22c-4.21-3.06-8.28-6.49-13.15-8.34
						c-6.08-2.31-13.13-1.86-18.87,1.19c-5.74,3.05-10.06,8.66-11.54,14.98c-1.6,6.83,0.03,14.09,3.16,20.37
						c-0.94-1.48-1.82-3-2.61-4.57c-3.2-6.34-4.9-13.7-3.28-20.62c1.48-6.33,5.8-11.93,11.54-14.98c5.74-3.05,12.8-3.49,18.87-1.19
						c4.87,1.85,8.94,5.28,13.15,8.34c4.21,3.06,8.9,5.89,14.1,6.22c5.2,0.33,10.93-2.64,12.13-7.71c0.63-2.66,1.53-6.1,3.69-7.76
						c2.16-1.66,5.21-2.09,7.75-1.08c2.02,0.8,3.74,2.45,5.9,2.66c3.06,0.3,5.51-2.31,8.1-3.97c4.33-2.78,10.16-3.03,14.7-0.63
						C978.5,110.71,981.02,113.76,982.22,117.26z"/>
				</g>
				<g class="st78">
					<path class="st6" d="M1008.69,127.67c-2.22-1.31-4.87-1.24-7.31-0.68c-2.59,0.6-5.05,1.71-7.67,2.24
						c-0.66,0.13-1.35,0.12-2.06,0c-3.15-0.52-5.56-3-6.37-6.09c-0.05-0.19-0.11-0.38-0.17-0.56c1.05,0.94,2.35,1.6,3.8,1.84
						c0.71,0.11,1.4,0.13,2.06-0.01c2.61-0.52,5.07-1.64,7.67-2.24c2.56-0.58,5.34-0.64,7.62,0.86c0.98,0.65,1.78,1.58,2.17,2.69
						C1008.66,126.41,1008.74,127.05,1008.69,127.67z"/>
				</g>
				<g class="st78">
					<path class="st6" d="M1018.37,150.21c-0.04-0.03-0.09-0.06-0.13-0.09c-2.77-1.79-6.33-2.02-8.9-4.3
						c-0.62-0.56-1.15-1.23-1.46-2.01c-0.29-0.73-0.39-1.42-0.34-2.09c2.45,1.64,5.52,2.01,7.97,3.59
						C1017.17,146.38,1018.52,148.31,1018.37,150.21z"/>
				</g>
				<g>
					<path class="st67" d="M903.24,172.31c-0.66-0.01-1.31-0.03-1.95-0.04c-20.82-0.58-23.92-4.13-24.3-7.16
						c-0.15-1.23,0.72-2.35,1.95-2.5c1.2-0.15,2.29,0.67,2.49,1.84c0.27,0.32,3.11,3.03,21.67,3.37c0.07,0,0.13,0,0.2,0
						c13.55,0.24,31.03-0.88,49.28-3.16c50.57-6.32,70-15.1,70.73-19.47c0.2-1.22,1.36-2.05,2.58-1.85c1.22,0.2,2.05,1.36,1.85,2.58
						c-0.53,3.17-3.53,8.05-23.49,13.69c-12.93,3.65-30.6,6.94-51.11,9.5C934.61,171.42,917,172.55,903.24,172.31z"/>
				</g>
				<g>
					<path class="st67" d="M880.93,169.21c-0.63-0.01-1.24-0.28-1.68-0.8c-4.6-5.46-9.35-11.1-12.69-17.7
						c-2.7-5.34-5.48-13.51-3.46-22.14c1.63-6.95,6.37-13.1,12.67-16.45c6.3-3.35,14.05-3.84,20.73-1.31
						c4.29,1.63,7.93,4.35,11.45,6.98c0.74,0.55,1.48,1.11,2.22,1.65c3.71,2.7,8.14,5.49,12.92,5.79c3.97,0.25,8.86-1.97,9.81-5.99
						c0.78-3.29,1.84-6.97,4.51-9.02c2.78-2.14,6.69-2.68,9.95-1.38c0.91,0.36,1.71,0.83,2.48,1.28c1.04,0.61,1.94,1.14,2.8,1.22
						c1.48,0.15,3.05-1.02,4.72-2.25c0.63-0.46,1.27-0.94,1.95-1.37c5.02-3.23,11.68-3.51,16.97-0.72
						c4.08,2.16,7.24,6.18,8.44,10.76c0.62,2.35,2.41,4.09,4.56,4.45c0.47,0.08,0.9,0.08,1.25,0.01c1.25-0.25,2.5-0.66,3.81-1.1
						c1.22-0.4,2.48-0.82,3.8-1.12c3.73-0.85,6.87-0.46,9.35,1.18c1.43,0.94,2.51,2.3,3.05,3.82c1.22,3.46-0.51,6.26-1.9,8.52
						c-1.27,2.07-1.97,3.31-1.42,4.65c0.17,0.41,0.47,0.82,0.88,1.18c1.12,1,2.64,1.54,4.25,2.12c1.45,0.52,2.95,1.05,4.37,1.97
						c2.52,1.63,4.72,4.92,3.6,8.32c-0.39,1.18-1.66,1.82-2.83,1.43c-1.18-0.39-1.82-1.66-1.43-2.83c0.34-1.03-0.64-2.41-1.78-3.14
						c-0.98-0.64-2.18-1.06-3.44-1.51c-1.85-0.66-3.95-1.41-5.73-2.99c-0.93-0.83-1.62-1.79-2.05-2.84
						c-1.43-3.51,0.34-6.38,1.76-8.69c1.23-2.01,1.97-3.31,1.48-4.68c-0.21-0.6-0.67-1.15-1.28-1.56c-1.41-0.93-3.39-1.12-5.88-0.55
						c-1.11,0.25-2.22,0.62-3.39,1.01c-1.39,0.46-2.82,0.94-4.34,1.24c-0.89,0.18-1.85,0.18-2.87,0.02
						c-3.9-0.64-7.11-3.68-8.17-7.74c-0.89-3.38-3.2-6.35-6.19-7.93c-3.82-2.01-8.82-1.8-12.45,0.53c-0.55,0.36-1.11,0.77-1.71,1.21
						c-2.17,1.6-4.62,3.41-7.82,3.1c-1.84-0.18-3.33-1.05-4.64-1.82c-0.66-0.39-1.28-0.75-1.88-0.99c-1.79-0.72-4.02-0.41-5.55,0.77
						c-1.63,1.25-2.44,4.67-2.88,6.5c-1.51,6.37-8.54,9.8-14.45,9.43c-5.93-0.37-11.05-3.56-15.28-6.64
						c-0.76-0.55-1.52-1.12-2.27-1.68c-3.42-2.56-6.65-4.97-10.35-6.38c-5.48-2.08-11.85-1.68-17.03,1.07
						c-5.18,2.75-9.07,7.81-10.41,13.52c-1.34,5.71-0.24,12.49,3.1,19.1c3.1,6.14,7.68,11.58,12.11,16.84
						c0.8,0.95,0.68,2.36-0.27,3.16C881.98,169.05,881.45,169.22,880.93,169.21z"/>
				</g>
				<g>
					<path class="st67" d="M1031.22,95.74c2.18-0.14,4.43,0.1,6.36,1.12c1.93,1.01,3.49,2.89,3.73,5.06
						c0.41,3.71-3.1,6.87-6.75,7.69c-3.65,0.81-7.43-0.02-11.15-0.34c-3.25-0.28-6.24,0.11-9.22,1.41
						C1016.16,103.55,1026.14,96.07,1031.22,95.74z"/>
				</g>
				<g class="st78">
					<path class="st6" d="M1041.35,102.29c-0.63-0.73-1.4-1.35-2.25-1.79c-1.93-1.01-4.19-1.25-6.36-1.12
						c-4.04,0.26-11.2,5.06-14.94,10.61c-1.2,0.25-2.38,0.62-3.56,1.13c1.98-7.13,11.96-14.61,17.04-14.94
						c2.18-0.14,4.43,0.11,6.36,1.12C1039.54,98.3,1041.09,100.15,1041.35,102.29z"/>
				</g>
				<g>
					<path class="st67" d="M1014.14,112.92c-0.52-0.01-1.03-0.2-1.43-0.55c-0.65-0.57-0.92-1.46-0.69-2.3
						c2.2-7.9,12.77-16.17,19.06-16.57l0,0c2.93-0.19,5.46,0.27,7.55,1.37c2.72,1.43,4.61,4.04,4.91,6.8
						c0.56,5.03-3.88,9.1-8.49,10.12c-3.16,0.7-6.27,0.34-9.28-0.02c-0.88-0.1-1.72-0.2-2.56-0.28c-3.02-0.26-5.61,0.13-8.13,1.23
						C1014.77,112.87,1014.45,112.93,1014.14,112.92z M1021.89,106.94c0.56,0.01,1.13,0.04,1.71,0.09c0.91,0.08,1.82,0.19,2.69,0.29
						c2.75,0.33,5.36,0.63,7.78,0.1c2.63-0.59,5.28-2.83,5.01-5.25c-0.14-1.28-1.14-2.58-2.54-3.32c-1.35-0.71-3.09-1-5.17-0.87l0,0
						c-3.22,0.21-9.5,4.39-12.93,9.17C1019.55,106.99,1020.7,106.92,1021.89,106.94z M1031.22,95.74L1031.22,95.74L1031.22,95.74z"
						/>
				</g>
				<g>
					<path class="st67" d="M840.61,92.94c-5.24-0.28-10.93,1.74-13.57,6.27c-1.47,2.51-1.78,5.9-0.04,8.23
						c1.84,2.45,5.37,3.01,8.36,2.36c2.99-0.66,5.66-2.28,8.48-3.49c2.81-1.21,6.04-2.02,8.91-0.97c1.26,0.46,2.39,1.26,3.69,1.57
						c1.3,0.31,2.94-0.07,3.44-1.32C863,97.74,844.77,93.16,840.61,92.94z"/>
				</g>
				<g class="st78">
					<path class="st6" d="M860.23,103.87c-4.33-4.3-14.69-6.74-17.7-6.9c-5.23-0.29-10.93,1.74-13.57,6.27
						c-0.87,1.5-1.34,3.32-1.2,5.03c-0.28-0.25-0.53-0.52-0.77-0.83c-1.75-2.32-1.43-5.71,0.03-8.23c2.65-4.53,8.34-6.55,13.58-6.27
						C844.46,93.14,860.34,97.08,860.23,103.87z"/>
				</g>
				<g>
					<path class="st67" d="M832.82,112.29c-3.15-0.06-5.97-1.31-7.62-3.51c-2.47-3.29-1.83-7.75-0.1-10.7
						c2.83-4.85,8.98-7.75,15.63-7.38l0,0c3.09,0.17,16.58,3.03,20.58,9.29c1.3,2.03,1.52,4.25,0.66,6.43
						c-0.97,2.44-3.84,3.19-6.05,2.67c-1.01-0.24-1.89-0.68-2.66-1.06c-0.45-0.23-0.88-0.44-1.28-0.59
						c-1.86-0.68-4.23-0.38-7.25,0.92c-0.79,0.34-1.58,0.72-2.4,1.12c-2.03,0.98-4.12,1.99-6.48,2.51
						C834.82,112.21,833.8,112.31,832.82,112.29z M839.88,95.15c-4.76-0.08-9,1.91-10.91,5.18c-0.95,1.62-1.41,4.11-0.18,5.75
						c1.27,1.69,3.97,1.98,6.09,1.51c1.84-0.4,3.62-1.26,5.49-2.16c0.83-0.4,1.69-0.82,2.57-1.2c4.12-1.78,7.58-2.11,10.57-1.02
						c0.64,0.23,1.2,0.51,1.74,0.78c0.61,0.3,1.19,0.59,1.7,0.71c0.36,0.09,0.72,0.02,0.87-0.05c0.29-0.8,0.2-1.48-0.3-2.27
						c-2.65-4.14-13.94-7.06-17.04-7.22l0,0C840.28,95.16,840.08,95.16,839.88,95.15z"/>
				</g>
				<g>
					<path class="st67" d="M937.71,118.44c-0.06,0.33-0.11,0.56-0.17,0.82c-0.06,0.25-0.12,0.5-0.18,0.74
						c-0.12,0.49-0.27,0.97-0.41,1.45c-0.3,0.95-0.62,1.88-0.99,2.79c-0.73,1.82-1.55,3.59-2.5,5.29c-0.96,1.69-1.97,3.34-3.12,4.88
						c-0.55,0.79-1.17,1.53-1.76,2.28c-0.6,0.74-1.26,1.44-1.88,2.16c-0.29,0.33-0.79,0.37-1.12,0.08c-0.3-0.26-0.36-0.71-0.14-1.04
						l0.03-0.05c0.51-0.77,1.05-1.52,1.53-2.3c0.47-0.79,0.97-1.56,1.39-2.38c0.9-1.59,1.64-3.27,2.33-4.94
						c0.68-1.68,1.22-3.41,1.67-5.15c0.23-0.87,0.41-1.74,0.56-2.61c0.07-0.43,0.15-0.87,0.2-1.3c0.03-0.21,0.05-0.43,0.07-0.64
						c0.02-0.2,0.04-0.44,0.04-0.57c0.02-1.24,1.04-2.24,2.29-2.22c1.24,0.02,2.24,1.04,2.22,2.29c0,0.11-0.01,0.22-0.03,0.33
						L937.71,118.44z"/>
				</g>
				<g class="st33">
					<path class="st67" d="M1029.66,137.44l0.1,0.78c-1.05-0.57-2.27-1.13-3.64-1.66c1.31,0.24,2.49,0.51,3.53,0.8
						C1029.66,137.38,1029.66,137.42,1029.66,137.44z"/>
				</g>
				<g class="st33">
					<path class="st67" d="M997.07,167.9c12.07-3.04,23.75-7.74,30.99-12.83c1.59-1.12,3.79-0.14,4.03,1.79l10.04,80.41
						c6.69,53.56-28.72,79.16-68.42,86.11c20.14-10.07,33.83-28.65,28.92-71.84l-9.7-77.62C992.6,171.15,994.37,168.57,997.07,167.9
						z"/>
				</g>
				<g>
					<path class="st6" d="M941.96,271.36c-8.31-0.2-16.36-1-24.14-2.44c-3.42-0.64-6.02-3.43-6.46-6.88l-7.49-59.94
						c-0.66-5.29,3.93-9.72,9.21-8.91c6.88,1.06,14.09,1.54,21.55,1.55c4.02,0.01,7.39,3.03,7.89,7.02l7.57,60.59
						C950.7,267.21,946.85,271.48,941.96,271.36z"/>
				</g>
				<g>
					<path class="st6" d="M948.78,304.47c-10.48,1.4-20.33,0.82-29.16-2.98c-2.17-0.93-3.69-2.92-3.98-5.26l-1.16-9.28
						c-0.55-4.41,3.32-8.07,7.7-7.3c7.85,1.37,16.01,1.91,24.41,1.83c3.35-0.03,6.2,2.44,6.61,5.77l1.23,9.87
						C954.89,300.7,952.37,303.99,948.78,304.47z"/>
				</g>
				<g class="st88">
					<path class="st6" d="M889.63,135.67c-3.51,4.72-7.63,7.59-10.98,5.11c-3.34-2.48-3.21-8.32,0.29-13.04s9.06-6.53,12.4-4.05
						C894.69,126.17,893.13,130.95,889.63,135.67z"/>
				</g>
				<g class="st33">
					<path class="st67" d="M1010.61,153.91c-1.32,1.23-3.53,0.93-5.01-0.11s-2.43-2.65-3.5-4.11c-1.06-1.46-2.38-2.9-4.14-3.32
						c-2.05-0.49-4.14,0.53-6.25,0.64c-3.59,0.2-6.83-2.23-9.08-5.04c-2.25-2.8-3.89-6.09-6.37-8.7c-3.64-3.83-9.03-5.93-14.3-5.57
						c-5.27,0.36-10.32,3.17-13.41,7.45c-2.21,3.07-3.4,6.75-5.23,10.06c-1.84,3.31-4.66,6.45-8.4,7.04
						c-3.2,0.51-6.59-0.93-9.66,0.13c-2.55,0.88-4.26,3.3-5.37,5.76c-1.11,2.46-1.83,5.12-3.31,7.38s-4.03,4.11-6.71,3.73
						C945.02,168.74,978.72,163.98,1010.61,153.91z"/>
				</g>
			</g>
			<g>
				<g>
					<path class="st89" d="M913.07,93.94c-9.53,0.63-18.08-11.36-19.1-26.77c-0.97-14.67,5.23-27.15,14.06-28.87
						c0.45-0.09,0.9-0.15,1.36-0.18c0.18-0.02,0.37-0.04,0.55-0.05C946.38,34.42,952.39,91.34,913.07,93.94z"/>
				</g>
				<g class="st33">
					<path class="st67" d="M913.07,93.94c-3.28,0.22-6.43-1.06-9.2-3.45c29.41-4.43,30.13-41.52,9.75-52.58
						C946.74,38.3,951.03,91.43,913.07,93.94z"/>
				</g>
				<g class="st36">
					<path class="st6" d="M908.03,38.31l0.17,3.71c-6.63,4.13-10.9,14.93-10.08,27.28c0.71,10.78,5.11,19.89,10.96,24.17
						c-7.82-2.38-14.23-13.07-15.1-26.29C893.01,52.51,899.2,40.02,908.03,38.31z"/>
				</g>
				<g>
					<path class="st67" d="M912.1,96.2c-10.45-0.18-19.29-12.56-20.36-28.88c-0.52-7.86,0.9-15.42,4.01-21.27
						c3.28-6.18,8.05-9.78,13.44-10.16c11.32-1.29,20.95,2.73,27.13,11.34c6.61,9.21,7.82,22.25,3,32.44
						c-4.64,9.83-13.91,15.69-26.1,16.5c0,0,0,0,0,0C912.84,96.2,912.47,96.21,912.1,96.2z M913.07,93.94L913.07,93.94L913.07,93.94
						z M913.72,40.15c-1.32-0.02-2.68,0.04-4.07,0.21c-0.04,0-0.07,0.01-0.11,0.01c-3.81,0.25-7.3,3.02-9.83,7.79
						c-2.72,5.12-3.96,11.82-3.5,18.87c0.92,13.91,8.55,25.21,16.71,24.68c10.49-0.69,18.42-5.64,22.34-13.94
						c4.14-8.77,3.1-19.98-2.59-27.91C928.22,43.65,921.59,40.29,913.72,40.15z"/>
				</g>
				<g>
					<path class="st67" d="M913.03,96.18c-1.15-0.02-2.12-0.92-2.2-2.1c-0.08-1.24,0.85-2.3,2.09-2.39
						c8.14-0.54,14.24-12.74,13.32-26.66c-0.92-13.91-8.6-25.22-16.71-24.67c-1.23,0.08-2.3-0.85-2.39-2.09
						c-0.08-1.24,0.85-2.3,2.09-2.39c10.92-0.73,20.37,11.95,21.48,28.86c1.12,16.9-6.57,30.71-17.51,31.43
						C913.15,96.18,913.09,96.18,913.03,96.18z"/>
				</g>
				<g>
					<path class="st67" d="M908.78,38.61c-0.58,2.3-1.02,4.58-1.09,6.84c-0.11,2.26,0.15,4.49,0.65,6.68
						c0.99,4.38,3.12,8.56,5,13.09c0.94,2.26,1.82,4.63,2.42,7.13c0.6,2.49,0.9,5.12,0.75,7.72c-0.13,2.6-0.71,5.16-1.61,7.53
						c-0.93,2.37-2.13,4.58-3.56,6.6c-0.26,0.36-0.75,0.45-1.12,0.19c-0.3-0.21-0.41-0.59-0.29-0.92l0.01-0.02
						c0.8-2.25,1.57-4.46,2.04-6.71l0.32-1.68l0.2-1.68c0.05-0.56,0.07-1.12,0.1-1.68c0.03-0.56-0.01-1.12,0-1.67
						c-0.08-2.22-0.45-4.41-1.07-6.58c-0.61-2.17-1.44-4.32-2.34-6.51c-0.9-2.19-1.87-4.42-2.71-6.76c-0.86-2.33-1.57-4.8-1.92-7.35
						c-0.36-2.56-0.31-5.19,0.16-7.71c0.49-2.52,1.37-4.92,2.57-7.1c0.21-0.39,0.7-0.53,1.09-0.31c0.32,0.18,0.47,0.55,0.39,0.9
						L908.78,38.61z"/>
				</g>
			</g>
			<g>
				<g>
					<path class="st89" d="M964.62,61.96c-7.13-6.35-4.6-20.85,5.66-32.39c9.77-10.98,23.01-15.33,30.43-10.25
						c0.37,0.26,0.74,0.54,1.08,0.84c0.14,0.12,0.29,0.23,0.43,0.36C1030.39,43.91,994.07,88.14,964.62,61.96z"/>
				</g>
				<g class="st33">
					<path class="st67" d="M964.62,61.96c-2.45-2.18-3.76-5.32-4-8.98c23.8,17.84,50.72-7.69,44.29-29.97
						C1027.88,46.88,993.05,87.23,964.62,61.96z"/>
				</g>
				<g class="st36">
					<path class="st6" d="M1000.7,19.31l-2.52,2.72c-7.6-1.82-18.29,2.72-26.51,11.97c-7.18,8.08-10.58,17.6-9.52,24.77
						c-3.8-7.24-0.68-19.31,8.12-29.21C980.04,18.58,993.29,14.23,1000.7,19.31z"/>
				</g>
				<g>
					<path class="st67" d="M983.46,72.24c-7.09-0.13-14.07-3.04-20.34-8.61c0,0,0,0,0,0c-8.18-7.28-5.78-22.9,5.47-35.56
						c5.24-5.89,11.61-10.18,17.96-12.07c6.7-2,12.62-1.13,16.67,2.44c8.87,7.15,12.76,16.84,10.96,27.29
						c-1.92,11.17-10.36,21.18-21,24.91C989.97,71.77,986.71,72.3,983.46,72.24z M966.11,60.28c7.86,6.98,16.95,9.16,25.61,6.13
						c9.15-3.2,16.41-11.82,18.06-21.44c1.51-8.78-1.83-16.98-9.4-23.06c-0.03-0.02-0.06-0.05-0.08-0.07
						c-2.85-2.53-7.27-3.08-12.45-1.53c-5.56,1.66-11.2,5.48-15.89,10.75C962.69,41.47,960.01,54.86,966.11,60.28L966.11,60.28z"/>
				</g>
				<g>
					<path class="st67" d="M972.76,67.16c-3.78-0.07-7.08-1.26-9.63-3.53c-0.93-0.82-1.01-2.24-0.19-3.17
						c0.82-0.93,2.24-1.01,3.17-0.19c2.85,2.53,7.27,3.08,12.45,1.53c5.56-1.66,11.2-5.48,15.89-10.75s7.82-11.33,8.82-17.04
						c0.93-5.32-0.13-9.65-2.98-12.18c-0.93-0.82-1.01-2.24-0.19-3.17c0.82-0.93,2.24-1.01,3.17-0.19c4.05,3.61,5.62,9.4,4.42,16.31
						c-1.14,6.52-4.65,13.36-9.89,19.25c-5.24,5.89-11.61,10.18-17.96,12.07C977.35,66.85,974.97,67.2,972.76,67.16z"/>
				</g>
				<g>
					<path class="st67" d="M1001.01,20.06c-2.05,1.2-3.97,2.49-5.64,4.03c-1.69,1.51-3.1,3.26-4.3,5.15
						c-2.43,3.78-3.9,8.23-5.81,12.75c-0.95,2.26-2.02,4.55-3.37,6.73c-1.36,2.17-3.02,4.23-4.98,5.95
						c-1.95,1.73-4.17,3.11-6.49,4.14c-2.34,1-4.75,1.7-7.19,2.1c-0.44,0.07-0.85-0.22-0.92-0.66c-0.06-0.36,0.13-0.71,0.45-0.85
						l0.02-0.01c2.17-1.01,4.28-2.01,6.21-3.26l1.42-0.95l1.34-1.04c0.44-0.35,0.84-0.74,1.27-1.1c0.42-0.37,0.79-0.79,1.19-1.17
						c1.52-1.62,2.83-3.42,3.94-5.38c1.12-1.96,2.07-4.06,3-6.24c0.93-2.17,1.84-4.43,2.91-6.67c1.06-2.25,2.32-4.48,3.89-6.53
						c1.57-2.05,3.48-3.86,5.61-5.3c2.14-1.42,4.47-2.48,6.86-3.15c0.43-0.12,0.87,0.13,0.99,0.56c0.1,0.36-0.06,0.73-0.37,0.91
						L1001.01,20.06z"/>
				</g>
			</g>
		</g>
		<g>
			<g>
				<path class="st66" d="M1166.23,301.73c-1.76,20.35-40.01,33.65-85.44,29.72c-45.43-3.93-80.83-23.61-79.06-43.96
					c0.71-8.16,7.28-15.18,17.82-20.41c2.41-1.2,5.02-2.3,7.82-3.3c15.53-5.56,36.74-8.01,59.81-6.01
					c7.98,0.69,15.66,1.87,22.87,3.45c26.37,5.78,46.63,16.96,53.62,29.54C1165.64,294.34,1166.55,298.02,1166.23,301.73z"/>
				<path class="st67" d="M1080.77,331.66c-21.99-1.9-42.34-7.53-57.3-15.84c-15.01-8.34-22.8-18.41-21.94-28.34
					c0.69-7.99,6.89-15.11,17.93-20.59c2.41-1.2,5.05-2.31,7.84-3.31c16.25-5.82,37.52-7.96,59.88-6.02
					c7.84,0.68,15.54,1.84,22.89,3.46c26.58,5.82,46.67,16.9,53.74,29.63c2.05,3.68,2.92,7.42,2.6,11.1
					c-0.86,9.93-10.26,18.51-26.48,24.15C1123.78,331.52,1102.76,333.56,1080.77,331.66z M1087.15,257.98
					c-22.31-1.93-43.53,0.2-59.73,6c-2.78,0.99-5.4,2.1-7.8,3.29c-10.9,5.41-17.03,12.41-17.7,20.24
					c-1.75,20.2,33.65,39.82,78.9,43.73c45.25,3.92,83.49-9.33,85.24-29.53c0.31-3.58-0.55-7.23-2.55-10.83
					c-3.41-6.14-10.14-12.11-19.47-17.25c-9.35-5.15-21.12-9.37-34.03-12.2C1102.66,259.82,1094.97,258.66,1087.15,257.98z"/>
			</g>
			<g class="st36">
				<path class="st6" d="M1133.4,268.36c-5.91-2.17-12.36-4.03-19.23-5.54c-7.21-1.59-14.89-2.77-22.87-3.46
					c-23.06-2-44.28,0.46-59.81,6.01c-2.8,1-5.41,2.1-7.82,3.3c-10.54,5.23-17.11,12.26-17.82,20.42
					c-1.09,12.56,11.98,24.86,32.83,33.36c-23.23-8.52-38.12-21.6-36.96-34.97c0.71-8.16,7.28-15.18,17.82-20.41
					c2.41-1.2,5.02-2.3,7.82-3.3c15.53-5.56,36.74-8.01,59.81-6.01c7.98,0.69,15.66,1.87,22.87,3.45
					C1118.54,263.09,1126.41,265.51,1133.4,268.36z"/>
			</g>
			<g>
				<path class="st67" d="M1080.64,333.13c-22.15-1.92-42.67-7.6-57.77-15.99c-15.52-8.63-23.56-19.2-22.64-29.78
					c0.92-10.58,10.65-19.61,27.42-25.45c16.32-5.68,37.5-7.75,59.66-5.83c22.15,1.92,42.67,7.6,57.77,15.99
					c15.52,8.63,23.56,19.2,22.64,29.78c-0.92,10.58-10.65,19.61-27.42,25.45C1123.99,332.98,1102.8,335.05,1080.64,333.13z
					 M1087.02,259.45c-21.79-1.89-42.58,0.13-58.54,5.69c-15.28,5.32-24.49,13.51-25.27,22.48c-0.78,8.97,6.89,18.63,21.03,26.49
					c14.77,8.21,34.9,13.77,56.69,15.66c21.79,1.89,42.58-0.13,58.54-5.69c15.28-5.32,24.49-13.51,25.27-22.48
					c0.78-8.97-6.89-18.63-21.03-26.49C1128.94,266.9,1108.81,261.34,1087.02,259.45z"/>
			</g>
			<g>
				<path class="st67" d="M1081.19,324.13c-16.04-1.39-30.9-5.37-41.84-11.23c-11.28-6.03-17.14-13.41-16.5-20.78
					c0.64-7.37,7.68-13.64,19.82-17.64c11.79-3.89,27.12-5.26,43.15-3.87c16.04,1.39,30.9,5.37,41.84,11.23
					c11.28,6.03,17.14,13.41,16.5,20.78c-0.64,7.37-7.68,13.64-19.82,17.64C1112.55,324.14,1097.22,325.52,1081.19,324.13z
					 M1085.6,273.13c-15.77-1.36-30.81-0.02-42.34,3.78c-11.02,3.63-17.64,9.25-18.18,15.4c-0.53,6.16,5.03,12.83,15.26,18.3
					c10.71,5.73,25.29,9.63,41.06,10.99c15.77,1.36,30.81,0.02,42.34-3.78c11.02-3.63,17.64-9.25,18.18-15.4s-5.03-12.83-15.26-18.3
					C1115.95,278.4,1101.37,274.5,1085.6,273.13z"/>
			</g>
			<g class="st33">
				<path class="st67" d="M1163.65,290.76l-20.48,10.21c-23.85,13.61-48.33,12.99-65.19,7.25c0.98,3.43-4.84,7.99-14.99,8.7
					l10.36-10.48c-7.83-3.39-13.46-7.9-15.8-12.29l52.49-32.92C1136.4,267,1156.67,278.18,1163.65,290.76z"/>
			</g>
			<g>
				<path class="st11" d="M1183.85,259.85c-0.55,0.74-1.11,1.45-1.68,2.13c-2.19,2.66-4.48,4.98-6.86,6.96
					c-1.48,1.24-2.99,2.35-4.53,3.33c-0.1,0.06-0.2,0.13-0.29,0.19c-8.61,5.43-18.04,6.94-27.39,5.04c-0.3-0.05-0.59-0.12-0.89-0.19
					l0.89-1.23l9.16-12.7c3.96,0.4,7.81-0.59,11.33-2.53c1.45-0.79,2.84-1.74,4.16-2.82c0.89-0.73,1.74-1.51,2.56-2.33
					c10.7-10.78,15.27-29.58,3.76-34.81c-0.14-0.06-0.27-0.12-0.42-0.18c-1.64-0.68-3.58-1.1-5.85-1.19l1.88-14.15
					c3.39-0.19,6.64,0.43,9.59,1.74c2.92,1.29,5.56,3.25,7.75,5.76C1195.55,222.62,1197.48,240.6,1183.85,259.85z"/>
			</g>
			<g class="st36">
				<path class="st6" d="M1173.52,255.68c-0.82,0.82-1.67,1.61-2.56,2.33c-1.32,1.07-2.71,2.03-4.16,2.82
					c-3.4,1.87-7.11,2.86-10.93,2.56c2.68-0.28,5.28-1.17,7.72-2.51c1.45-0.79,2.84-1.74,4.16-2.82c0.89-0.73,1.74-1.51,2.56-2.33
					c10.7-10.78,15.27-29.58,3.76-34.81c-0.14-0.06-0.27-0.12-0.42-0.18c-0.23-0.1-0.47-0.19-0.72-0.28
					c1.47-0.1,2.77-0.25,3.93,0.23c0.14,0.06,0.28,0.12,0.42,0.18C1188.79,226.1,1184.22,244.9,1173.52,255.68z"/>
			</g>
			<g class="st36">
				<g>
					<path class="st6" d="M1155.87,263.38c-0.15,0.02-0.3,0.03-0.45,0.05l0.06-0.08C1155.6,263.37,1155.74,263.38,1155.87,263.38z"
						/>
				</g>
				<g>
					<path class="st67" d="M1154.99,263.67l0.4-0.54l0.1,0.01c0.13,0.01,0.25,0.03,0.38,0.03l0.01,0.42
						c-0.15,0.02-0.31,0.04-0.46,0.05L1154.99,263.67z"/>
				</g>
			</g>
			<g>
				<path class="st11" d="M1169.79,204.22c-12.14,140.31-166.96,126.92-154.82-13.4c1.26-14.51,36.93-23.28,79.68-19.58
					C1137.4,174.94,1171.04,189.7,1169.79,204.22z"/>
			</g>
			<g>
				<path class="st66" d="M1167.23,220.3l-1.18,5.27c-3.96,45.73-155.49,32.62-151.53-13.11l-0.02-7.11
					C1018.31,246.46,1152.88,258.69,1167.23,220.3z"/>
			</g>
			<g class="st33">
				<path class="st67" d="M1028.56,197.13c22.96-19.2,112.42-8.25,127.1,12.06c7.71-8.7-6.15-16.14-6.15-16.14
					c-37.12-14.65-74.72-17.91-112.85-8.78C1036.66,184.27,1022.57,190.23,1028.56,197.13z"/>
			</g>
			<g class="st36">
				<path class="st6" d="M1018.68,193.15c-4.36,50.42,12.83,84.45,37.22,100.85c-26.33-15.37-45.52-50.24-40.93-103.18
					c1.26-14.51,36.93-23.28,79.68-19.58c28.24,2.44,52.51,9.72,65.37,18.55c-13.51-7.77-35.93-14-61.65-16.22
					C1055.62,169.87,1019.94,178.64,1018.68,193.15z"/>
			</g>
			<g>
				<g>
					<path class="st68" d="M1014.49,201.82l0.01,3.52C1014.39,204.19,1014.38,203.02,1014.49,201.82z"/>
				</g>
				<g>
					<path class="st67" d="M1014.31,205.37c-0.11-1.17-0.11-2.37-0.01-3.56l0.37,0.01l0.01,3.52L1014.31,205.37z"/>
				</g>
			</g>
			<g>
				<path class="st67" d="M1083.13,304.44c-20.7-1.79-39.16-12.99-51.99-31.54c-14.41-20.83-20.51-49.26-17.66-82.2
					c0.68-7.82,9.73-14.27,25.48-18.14c15.19-3.73,35.02-4.79,55.84-2.99c20.82,1.8,40.17,6.25,54.49,12.54
					c14.86,6.52,22.66,14.42,21.99,22.24c-2.85,32.94-13.75,59.9-31.52,77.95C1123.94,298.36,1103.82,306.23,1083.13,304.44z
					 M1094.51,172.93c-45.41-3.93-77.02,6.15-78.05,18.02c-6.16,71.15,30.39,106.96,66.96,110.12
					c36.56,3.16,78.72-25.84,84.88-96.99C1169.32,192.21,1139.92,176.85,1094.51,172.93z"/>
			</g>
			<g>
				<path class="st69" d="M1155.66,209.19L1155.66,209.19c-0.85,0.87-1.9,1.7-3.15,2.48c-10.48,6.56-34.49,9.73-61.99,7.35
					c-1.85-0.16-3.67-0.34-5.48-0.55c-25.07-2.81-45.76-9.64-54.33-17.35c0,0,0,0-0.01,0c-0.77-0.69-1.44-1.39-2-2.08
					c-0.43-0.6-0.72-1-0.83-1.15c-0.01-0.02-0.02-0.03-0.03-0.04c-0.01-0.02-0.02-0.03-0.02-0.03c5.97-6.17,22.4-10.13,43.29-10.58
					c6.88-0.15,14.23,0.08,21.86,0.74C1124.1,190.69,1149.6,199.63,1155.66,209.19z"/>
			</g>
			<g>
				<path class="st67" d="M1155.55,210.46c-0.36-0.03-0.67-0.25-0.84-0.57c-6.01-9.38-32-18.05-61.85-20.63
					c-29.1-2.52-55.83,1.35-63.99,9.21c-0.07,0.15-0.16,0.28-0.28,0.39c-0.48,0.46-1.19,0.4-1.58-0.13c0-0.01-0.01-0.01-0.02-0.02
					c-0.03-0.04-0.05-0.07-0.08-0.11c-0.33-0.51-0.27-1.24,0.16-1.68c8.35-8.63,35.49-12.81,66-10.17
					c31,2.68,57.11,11.61,63.51,21.71c0.15,0.24,0.22,0.54,0.2,0.84C1156.72,209.99,1156.17,210.51,1155.55,210.46z"/>
			</g>
			<g class="st70">
				<path class="st6" d="M1052.87,225.5c-7.34-2.11-12.66-4.24-16.4-6.04c-3.33-1.6-6.99,1.61-6.45,5.66
					c1.01,7.6,2.79,17.95,5.64,25.69c1.3,3.53,4.07,6.09,7.41,6.88l10.5,2.47c2.86,0.67,5.51-2.06,5.16-5.33
					c-0.67-6.24-0.7-13.35,0.05-19.35C1059.33,230.9,1056.81,226.63,1052.87,225.5z"/>
			</g>
			<g class="st70">
				<path class="st6" d="M1058.63,284.78c-7.09-3.92-12.01-11.33-14.59-16.07c-0.92-1.68,0.42-3.83,2.16-3.47l9.18,1.93
					c2.36,0.49,4.17,2.58,4.56,5.24l1.47,9.98C1061.67,284.15,1060.04,285.56,1058.63,284.78z"/>
			</g>
			<g>
				<path class="st67" d="M1147.42,279.84c-1.83-0.16-3.67-0.45-5.53-0.87c-0.81-0.18-1.32-1.07-1.14-1.98
					c0.18-0.91,0.98-1.51,1.79-1.32c15.11,3.41,29.38-2.58,40.16-16.87c9.47-13.4,12.07-27.47,7.13-38.59
					c-3.81-8.58-11.52-13.61-20.11-13.13c-0.83,0.05-1.52-0.67-1.54-1.6c-0.02-0.93,0.63-1.72,1.45-1.77
					c9.78-0.54,18.55,5.18,22.89,14.94c2.53,5.69,3.32,12.34,2.29,19.24c-1.14,7.69-4.44,15.42-9.79,22.99
					c-0.01,0.01-0.02,0.03-0.03,0.04C1174.76,274.49,1161.59,281.07,1147.42,279.84z"/>
			</g>
			<g>
				<path class="st71" d="M1099.84,215.5c-4.67,0.16-8.25,2-9.38,4.35c-0.71-2.51-3.92-4.94-8.5-5.9
					c-12.86-3.39-23.93-6.55-22.06-15.42c4.44-10.73,29.26-8.91,32.25,1.69c4.77-9.94,29.54-7.47,32.07,3.87
					C1124.54,213.15,1113.09,214.37,1099.84,215.5z"/>
			</g>
			<g>
				<path class="st67" d="M1152.38,265.11c-0.1-0.01-0.19-0.02-0.28-0.03c-0.82-0.08-1.41-0.9-1.32-1.83
					c0.09-0.93,0.82-1.62,1.65-1.53c9.34,0.95,17.44-6.41,21.92-13.62c4.63-7.45,6.18-15.6,3.96-20.75
					c-1.65-3.83-5.21-5.88-10.59-6.12c-0.82-0.03-1.46-0.82-1.41-1.75c0.05-0.93,0.76-1.66,1.58-1.62
					c8.15,0.35,11.63,4.52,13.11,7.96c2.73,6.33,1.11,15.59-4.22,24.17C1171.86,257.92,1162.88,266.02,1152.38,265.11z"/>
			</g>
			<g>
				<path class="st72" d="M1090.58,218.4c2.77-5.6,18.22-5.4,26.91-9.41c2.31-1.07,3.75-3.05,3.44-5.19
					c-1.06-7.47-21.63-10.73-28.78-3.57c-5.82-8.28-26.64-8.6-28.97-1.43c-0.66,2.05,0.41,4.26,2.5,5.7
					C1073.56,209.95,1088.82,212.41,1090.58,218.4z"/>
			</g>
			<g>
				<path class="st73" d="M1091.65,203.16c-1.6-1.48-3.42-2.59-5.34-3.33c-1.91-0.76-3.93-1.19-5.95-1.37
					c-2.02-0.16-4.07-0.09-6.03,0.32c-0.98,0.21-1.95,0.5-2.78,0.95c-0.41,0.22-0.8,0.49-1.03,0.77c-0.11,0.14-0.18,0.26-0.2,0.35
					c-0.02,0.09-0.02,0.14,0.01,0.25c0.03,0.11,0.11,0.26,0.23,0.41c0.11,0.15,0.3,0.33,0.47,0.5c0.35,0.33,0.73,0.63,1.15,0.91
					c0.83,0.57,1.75,1.07,2.67,1.55c1.85,0.97,3.77,1.84,5.67,2.8c1.9,0.94,3.79,1.95,5.61,3.13c0.9,0.61,1.79,1.24,2.61,1.98
					c0.82,0.74,1.58,1.58,2.13,2.58c-0.71-0.86-1.54-1.53-2.42-2.12c-0.88-0.59-1.79-1.1-2.73-1.57c-1.87-0.95-3.81-1.74-5.74-2.56
					c-1.95-0.8-3.9-1.59-5.83-2.52c-0.97-0.47-1.93-0.97-2.88-1.59c-0.47-0.3-0.95-0.67-1.39-1.08c-0.22-0.22-0.43-0.4-0.66-0.7
					c-0.22-0.28-0.44-0.62-0.57-1.07c-0.14-0.44-0.16-1-0.02-1.48c0.13-0.48,0.38-0.86,0.62-1.15c0.25-0.3,0.51-0.52,0.78-0.71
					c0.27-0.19,0.53-0.35,0.8-0.49c1.08-0.54,2.16-0.83,3.25-1.03c2.17-0.37,4.34-0.34,6.46,0c2.12,0.33,4.19,1,6.11,2.01
					C1088.56,199.96,1090.33,201.35,1091.65,203.16z"/>
			</g>
			<g>
				<path class="st73" d="M1091.89,203.18c1.62-1.55,3.6-2.62,5.65-3.31c2.07-0.67,4.22-0.97,6.37-0.93
					c2.15,0.03,4.29,0.38,6.36,1.11c1.04,0.38,2.05,0.85,3.02,1.57c0.24,0.18,0.48,0.38,0.71,0.62c0.23,0.23,0.45,0.5,0.65,0.83
					c0.19,0.33,0.37,0.74,0.42,1.24c0.06,0.49-0.06,1.05-0.27,1.46c-0.21,0.42-0.48,0.71-0.75,0.95c-0.28,0.25-0.51,0.39-0.77,0.57
					c-0.51,0.33-1.04,0.61-1.55,0.83c-1.04,0.45-2.07,0.78-3.11,1.07c-2.07,0.58-4.13,1.03-6.18,1.48c-2.05,0.47-4.09,0.92-6.1,1.53
					c-1,0.3-2,0.65-2.96,1.07c-0.96,0.43-1.9,0.95-2.74,1.68c0.71-0.89,1.61-1.59,2.54-2.18c0.93-0.59,1.92-1.06,2.91-1.51
					c1.99-0.85,4.03-1.51,6.07-2.12c2.03-0.62,4.08-1.16,6.06-1.79c0.99-0.32,1.98-0.65,2.9-1.07c0.47-0.2,0.89-0.43,1.29-0.7
					c0.19-0.14,0.42-0.28,0.55-0.41c0.14-0.13,0.25-0.26,0.3-0.37c0.05-0.1,0.06-0.16,0.05-0.24c-0.01-0.09-0.05-0.22-0.14-0.38
					c-0.18-0.31-0.51-0.65-0.88-0.93c-0.75-0.59-1.65-1.04-2.58-1.41c-1.87-0.74-3.87-1.16-5.89-1.35
					c-2.02-0.17-4.07-0.09-6.09,0.33C1095.7,201.22,1093.72,201.99,1091.89,203.18z"/>
			</g>
			<g>
				<path class="st73" d="M1091.6,205.15c-0.98-0.75-2.01-1.39-3.11-1.85c-0.54-0.24-1.1-0.45-1.67-0.61
					c-0.56-0.17-1.14-0.31-1.71-0.4c-1.15-0.18-2.34-0.25-3.44,0.01c-0.27,0.07-0.54,0.16-0.77,0.28c-0.23,0.13-0.42,0.3-0.5,0.48
					c-0.17,0.33,0.12,0.88,0.5,1.3l-0.03-0.03c0.79,0.72,1.69,1.32,2.58,1.92c0.9,0.6,1.81,1.17,2.72,1.77
					c0.91,0.59,1.82,1.2,2.69,1.87c0.43,0.34,0.86,0.7,1.25,1.1c0.2,0.2,0.38,0.42,0.55,0.66c0.16,0.24,0.3,0.51,0.32,0.81
					c-0.06-0.29-0.22-0.53-0.4-0.74c-0.18-0.21-0.37-0.4-0.58-0.57c-0.42-0.35-0.86-0.66-1.31-0.95c-0.91-0.59-1.84-1.12-2.77-1.66
					c-0.94-0.54-1.87-1.08-2.79-1.66c-0.93-0.58-1.83-1.19-2.69-1.94l-0.02-0.01l-0.01-0.01c-0.22-0.26-0.45-0.52-0.6-0.9
					c-0.04-0.09-0.08-0.18-0.1-0.29c-0.03-0.1-0.05-0.21-0.05-0.33c-0.01-0.12-0.01-0.23,0.02-0.35c0.02-0.12,0.05-0.24,0.11-0.34
					c0.2-0.43,0.53-0.66,0.84-0.83c0.31-0.16,0.62-0.26,0.94-0.33c1.25-0.26,2.48-0.14,3.68,0.1c1.19,0.25,2.35,0.68,3.43,1.26
					C1089.71,203.51,1090.73,204.25,1091.6,205.15z"/>
			</g>
			<g>
				<path class="st73" d="M1091.6,205.15c1.01-0.74,2.14-1.29,3.3-1.68c1.17-0.39,2.38-0.61,3.59-0.66
					c1.22-0.04,2.45,0.06,3.64,0.53c0.3,0.13,0.59,0.28,0.87,0.49c0.27,0.22,0.55,0.51,0.68,0.96c0.04,0.11,0.05,0.23,0.05,0.35
					c0.01,0.12-0.01,0.24-0.04,0.35c-0.02,0.12-0.06,0.22-0.11,0.32c-0.04,0.1-0.09,0.19-0.15,0.27c-0.22,0.34-0.49,0.56-0.75,0.78
					l-0.01,0.01l-0.02,0.01c-0.97,0.59-1.97,1.04-2.99,1.45c-1.01,0.41-2.02,0.79-3.04,1.15c-1.01,0.38-2.02,0.74-3.02,1.16
					c-0.5,0.21-0.99,0.43-1.46,0.71c-0.24,0.13-0.46,0.29-0.67,0.47c-0.21,0.17-0.41,0.38-0.52,0.66c0.08-0.29,0.26-0.54,0.46-0.75
					c0.2-0.21,0.42-0.39,0.65-0.55c0.46-0.33,0.94-0.61,1.42-0.87c0.97-0.51,1.97-0.96,2.97-1.39c1-0.43,2-0.84,2.99-1.28
					c0.98-0.44,1.97-0.88,2.87-1.45l-0.03,0.02c0.45-0.35,0.83-0.84,0.72-1.19c-0.05-0.19-0.21-0.39-0.41-0.56
					c-0.21-0.16-0.46-0.3-0.71-0.41c-1.04-0.45-2.23-0.58-3.39-0.6c-0.58-0.01-1.17,0.02-1.76,0.1c-0.59,0.06-1.17,0.17-1.75,0.31
					C1093.82,204.12,1092.69,204.58,1091.6,205.15z"/>
			</g>
			<g>
				<path class="st73" d="M1077.38,200.04c-0.44,0.26-0.88,0.51-1.19,0.82c-0.31,0.34-0.33,0.58-0.14,0.96
					c0.2,0.37,0.52,0.74,0.85,1.1c0.33,0.36,0.69,0.71,1.02,1.13c-0.49-0.13-0.94-0.35-1.36-0.63c-0.42-0.29-0.83-0.64-1.13-1.19
					c-0.14-0.27-0.25-0.66-0.16-1.05c0.1-0.39,0.35-0.66,0.6-0.81C1076.37,200.06,1076.88,199.99,1077.38,200.04z"/>
			</g>
			<g>
				<path class="st67" d="M1147.9,191.87c1.66,0.65,3.26,1.46,4.8,2.47c0.38,0.26,0.76,0.52,1.14,0.79
					c0.36,0.29,0.74,0.56,1.09,0.88c0.72,0.61,1.4,1.3,2.03,2.07c0.61,0.79,1.19,1.65,1.62,2.67c0.42,1.01,0.67,2.19,0.63,3.39
					c-0.01,1.2-0.37,2.39-0.88,3.4c-0.51,1.01-1.18,1.87-1.88,2.62l0.38-0.86l0,0c-0.03,0.34-0.17,0.63-0.37,0.85l-0.01,0.01
					c-1.11,1.14-2.32,2.06-3.58,2.82l-1.9,1.08c-0.64,0.32-1.3,0.61-1.94,0.91c-2.61,1.13-5.27,2.04-7.95,2.71
					c-5.37,1.38-10.79,2.22-16.22,2.74c-5.43,0.51-10.86,0.7-16.29,0.69c-2.71,0.01-5.42-0.08-8.13-0.17l-4.06-0.22
					c-1.35-0.06-2.7-0.2-4.05-0.29c-10.8-0.84-21.54-2.44-32.1-5.07c-5.28-1.32-10.52-2.87-15.64-4.87l-1.92-0.77l-1.89-0.86
					c-1.27-0.54-2.5-1.21-3.74-1.86c-0.62-0.33-1.21-0.72-1.82-1.07l-0.9-0.55c-0.3-0.19-0.59-0.41-0.88-0.61l-0.87-0.62
					c-0.29-0.21-0.59-0.4-0.86-0.65l-1.66-1.42l0.58,0.26l-0.01,0l-0.58-0.26c-0.54-0.51-1.07-1.05-1.57-1.63
					c-0.25-0.29-0.5-0.59-0.72-0.92l-0.67-0.97l0.14,0.18c-0.09-0.1-0.17-0.21-0.24-0.33l0.04,0.08c0.01,0.02,0.03,0.05,0.05,0.07
					l-0.05-0.07c-0.48-0.8-0.89-1.69-1.15-2.66c-0.26-0.97-0.36-2.04-0.21-3.07c0.13-1.04,0.5-2.02,0.99-2.85
					c0.49-0.84,1.08-1.56,1.73-2.19c1.3-1.23,2.74-2.16,4.23-2.9c1.49-0.75,3.01-1.35,4.55-1.83c0.09-0.03,0.19,0.03,0.21,0.14
					c0.02,0.09-0.02,0.19-0.1,0.23c-1.46,0.72-2.9,1.47-4.26,2.36c-1.35,0.9-2.65,1.9-3.71,3.11c-1.04,1.2-1.86,2.64-1.94,4.13
					c-0.14,1.48,0.43,2.95,1.29,4.21l-0.05-0.07c0.03,0.04,0.06,0.08,0.09,0.13l0.04,0.08c-0.04-0.1-0.11-0.19-0.18-0.26l0.14,0.18
					l0.6,0.79c0.19,0.27,0.42,0.51,0.65,0.76c0.46,0.49,0.95,0.95,1.46,1.39l-0.58-0.26l0.01,0l0.58,0.26
					c4.14,3.39,9.06,5.75,14.02,7.78c4.98,2.04,10.12,3.63,15.33,4.94c10.43,2.59,21.07,4.19,31.77,5.01
					c1.34,0.09,2.68,0.21,4.02,0.27l4.02,0.19c2.68,0.07,5.36,0.15,8.05,0.12c5.37-0.02,10.73-0.28,16.08-0.83
					c5.34-0.56,10.66-1.37,15.86-2.73c1.31-0.31,2.58-0.73,3.87-1.12c0.65-0.18,1.26-0.45,1.9-0.67c0.63-0.24,1.27-0.45,1.87-0.74
					c0.61-0.28,1.22-0.54,1.83-0.83l1.75-0.96c1.15-0.66,2.22-1.46,3.14-2.37l-0.38,0.86l0,0l0-0.03c0.03-0.33,0.17-0.62,0.38-0.83
					c1.18-1.18,2.04-2.63,2.09-4.17c0.05-0.76-0.08-1.55-0.35-2.32c-0.29-0.77-0.69-1.52-1.17-2.24c-0.26-0.35-0.5-0.71-0.79-1.03
					c-0.27-0.35-0.56-0.67-0.86-1c-0.6-0.65-1.24-1.25-1.89-1.86c-1.33-1.18-2.74-2.29-4.17-3.39c-0.08-0.06-0.1-0.18-0.04-0.27
					C1147.75,191.88,1147.83,191.85,1147.9,191.87z"/>
			</g>
			<g>
				<path class="st71" d="M1126.3,200.82c0.7,0.26,1.33,0.7,1.93,1.21c0.58,0.52,1.12,1.15,1.53,1.93c0.4,0.77,0.67,1.72,0.64,2.72
					c-0.03,1-0.37,1.97-0.84,2.75c-0.97,1.57-2.32,2.53-3.67,3.25c-1.37,0.7-2.79,1.15-4.26,1.34c1.22-0.96,2.45-1.79,3.58-2.7
					c1.13-0.9,2.2-1.86,2.88-2.98c0.34-0.56,0.56-1.14,0.63-1.75c0.07-0.61-0.02-1.26-0.22-1.93
					C1128.08,203.33,1127.24,202.05,1126.3,200.82z"/>
			</g>
			<g>
				<path class="st71" d="M1057.7,194.88c-1.14,1.06-2.18,2.17-2.83,3.4c-0.31,0.62-0.51,1.24-0.55,1.86
					c-0.03,0.61,0.08,1.23,0.32,1.83c0.48,1.22,1.37,2.36,2.33,3.43c0.96,1.09,2.03,2.11,3.07,3.27c-1.41-0.43-2.74-1.12-3.97-2.05
					c-1.21-0.94-2.37-2.12-3.06-3.83c-0.33-0.85-0.5-1.86-0.36-2.85c0.14-0.99,0.57-1.88,1.1-2.57c0.53-0.7,1.17-1.22,1.84-1.64
					C1056.26,195.34,1056.96,195.02,1057.7,194.88z"/>
			</g>
			<g>
				
					<ellipse transform="matrix(0.0862 -0.9963 0.9963 0.0862 839.4509 1328.932)" class="st71" cx="1144.17" cy="206.86" rx="1.23" ry="2.84"/>
			</g>
			<g>
				
					<ellipse transform="matrix(0.0862 -0.9963 0.9963 0.0862 750.973 1215.8365)" class="st71" cx="1038.28" cy="198.54" rx="1.23" ry="2.84"/>
			</g>
			<g>
				
					<ellipse transform="matrix(0.0862 -0.9963 0.9963 0.0862 833.1177 1329.6699)" class="st71" cx="1141.4" cy="210.68" rx="0.76" ry="1.84"/>
			</g>
			<g>
				
					<ellipse transform="matrix(0.0862 -0.9963 0.9963 0.0862 759.0764 1218.9991)" class="st71" cx="1044.05" cy="195.7" rx="0.76" ry="1.84"/>
			</g>
			<g>
				
					<ellipse transform="matrix(0.0862 -0.9963 0.9963 0.0862 833.3034 1323.8909)" class="st71" cx="1138.35" cy="207.69" rx="0.39" ry="1"/>
			</g>
			<g>
				<path class="st71" d="M1046.72,200.6c-0.02,0.26-0.59,0.43-1.28,0.37c-0.68-0.06-1.22-0.32-1.19-0.59s0.59-0.43,1.28-0.37
					C1046.21,200.07,1046.74,200.34,1046.72,200.6z"/>
			</g>
			<g>
				<g class="st33">
					<path class="st67" d="M1068.17,298.23c0.01,0,0.03,0,0.04,0c1.21,0.36,2.56,0.75,4.03,1.17c38.53,7.87,82.64-19.8,92.55-86.44
						c0,0,0,0,0,0c-4.16,5.5-12.85,11.33-30.02,15.94c-2.53,0.68-4.39,3.14-4.57,6.05C1127.7,275.41,1105.51,295.65,1068.17,298.23z
						"/>
				</g>
			</g>
			<g class="st33">
				<path class="st74" d="M1085.04,218.48c-25.07-2.81-45.76-9.64-54.33-17.35c0,0,0,0-0.01,0c-0.77-0.69-1.44-1.39-2-2.08
					c-0.43-0.6-0.72-1-0.83-1.15c-0.01-0.02-0.02-0.03-0.03-0.04c-0.01-0.02-0.02-0.03-0.02-0.03c5.97-6.17,22.4-10.13,43.29-10.58
					l0.18,0.17C1032.23,197.41,1044.65,207.82,1085.04,218.48z"/>
			</g>
			<g class="st33">
				<path class="st67" d="M1187.03,212.89c-5.33-0.99-9.91,2.35-13.37,7.85c-1.64-0.68-3.58-1.1-5.85-1.19l1.88-14.15
					c3.39-0.19,6.64,0.43,9.59,1.74C1182.19,208.42,1184.83,210.38,1187.03,212.89z"/>
			</g>
			<g class="st33">
				<path class="st67" d="M1175.32,268.95c-1.48,1.24-2.99,2.35-4.53,3.33c-0.1,0.06-0.2,0.13-0.29,0.19
					c-8.61,5.43-18.04,6.94-27.39,5.04c-0.3-0.05-0.59-0.12-0.89-0.19l0.89-1.23l9.16-12.7c3.96,0.4,7.81-0.59,11.33-2.53
					c1.45-0.79,2.84-1.74,4.16-2.82C1169.05,263.2,1171.51,267.21,1175.32,268.95z"/>
			</g>
			<g class="st33">
				<path class="st67" d="M1085.78,323.18c-0.59-0.08-1.18-0.17-1.76-0.26c-93.55-14.03-64.48-55.84-64.48-55.84
					c2.41-1.2,5.02-2.3,7.82-3.3c4.08,7.85,9.06,14.49,14.98,19.9C1020.72,299.49,1039.67,312.33,1085.78,323.18z"/>
			</g>
			<g>
				<g>
					<path class="st69" d="M1024.61,309.06c-5.86-3.63-6.23-15.33-0.82-26.14c5.16-10.28,13.69-16.04,19.56-13.44
						c0.3,0.13,0.59,0.28,0.87,0.46c0.12,0.06,0.23,0.13,0.35,0.2C1067.49,283.2,1048.81,324.05,1024.61,309.06z"/>
				</g>
				<g class="st33">
					<path class="st67" d="M1024.61,309.06c-2.02-1.25-3.38-3.45-4.08-6.24c19.08,9.53,33.98-15.12,26.28-31.23
						C1066.19,285.96,1047.98,323.53,1024.61,309.06z"/>
				</g>
				<g class="st36">
					<path class="st6" d="M1053.43,280.16c-1.74-2.76-4.23-5.18-7.59-7.02c0,0-0.01-0.01-0.01-0.01c-0.77-0.47-1.75-0.13-2.2,0.73
						l-17.82,33.97l-1.75-1.47l17.95-34.31l1.35-2.57c0.01,0.01,0.02,0.01,0.02,0.01c0.1,0.05,0.2,0.09,0.3,0.14
						c0.19,0.09,0.37,0.19,0.55,0.3c0.12,0.06,0.23,0.13,0.35,0.2v0C1048.97,272.65,1051.85,276.19,1053.43,280.16z"/>
				</g>
				<g class="st36">
					<path class="st6" d="M1043.35,269.49l-1.35,2.57c-5.52-0.04-12.26,5.41-16.6,14.06c-3.79,7.56-4.75,15.56-2.97,20.93
						c-3.69-4.93-3.29-14.85,1.35-24.11C1028.94,272.65,1037.48,266.88,1043.35,269.49z"/>
				</g>
				<g>
					<path class="st67" d="M1033.57,313.66c-3.16-0.27-6.4-1.4-9.58-3.37c0,0,0,0,0,0c-3.22-2-5.09-6.09-5.26-11.53
						c-0.16-5.19,1.25-11.05,3.98-16.5c2.73-5.45,6.47-9.87,10.53-12.45c4.24-2.69,8.35-3.09,11.57-1.11
						c7.07,3.88,11.11,10.58,11.39,18.86c0.3,8.87-4.01,18.02-10.73,22.76C1041.8,312.91,1037.74,314.02,1033.57,313.66z
						 M1025.22,307.83c6.57,4.07,13.31,4.11,18.97,0.12c5.97-4.21,9.8-12.34,9.53-20.23c-0.24-7.23-3.82-13.09-10.06-16.51
						c-0.02-0.01-0.04-0.02-0.05-0.03c-2.45-1.52-5.71-1.14-9.18,1.06c-3.66,2.33-7.05,6.36-9.56,11.36
						C1019.8,293.7,1019.96,304.57,1025.22,307.83L1025.22,307.83z"/>
				</g>
				<g>
					<path class="st67" d="M1027.72,311.26c-1.29-0.11-2.51-0.51-3.62-1.19c-0.48-0.3-0.65-0.99-0.38-1.54
						c0.28-0.55,0.89-0.76,1.38-0.46c2.52,1.56,5.86,1.18,9.4-1.07c3.7-2.35,7.12-6.42,9.65-11.46c2.53-5.04,3.84-10.42,3.69-15.15
						c-0.14-4.53-1.61-7.88-4.13-9.44c-0.48-0.3-0.65-0.99-0.38-1.54c0.28-0.55,0.89-0.76,1.38-0.46c3.15,1.95,4.98,5.97,5.15,11.32
						c0.16,5.14-1.24,10.96-3.96,16.36c-2.71,5.41-6.42,9.79-10.44,12.35C1032.76,310.69,1030.11,311.46,1027.72,311.26z"/>
				</g>
				<g>
					<path class="st67" d="M1023.12,309.09c-0.14-0.01-0.29-0.06-0.42-0.15c-0.48-0.31-0.64-1.01-0.35-1.55l20.13-38.46
						c0.29-0.55,0.91-0.74,1.39-0.43c0.48,0.31,0.64,1.01,0.35,1.55l-20.13,38.46C1023.88,308.91,1023.5,309.12,1023.12,309.09z"/>
				</g>
			</g>
			<g>
				<g>
					<path class="st69" d="M1038.68,297.63c-0.2-6.77,7.52-12.75,17.26-13.35c9.27-0.57,17.02,3.93,17.92,10.21
						c0.05,0.32,0.07,0.64,0.08,0.97c0.01,0.13,0.02,0.26,0.02,0.39C1075.54,321.76,1039.53,325.57,1038.68,297.63z"/>
				</g>
				<g class="st33">
					<path class="st67" d="M1038.68,297.63c-0.07-2.33,0.8-4.56,2.36-6.51c2.21,20.92,25.58,21.72,32.96,7.34
						C1073.09,321.98,1039.5,324.61,1038.68,297.63z"/>
				</g>
				<g class="st36">
					<path class="st6" d="M1073.87,294.49l-2.34,0.09c-2.47-4.74-9.2-7.86-17-7.38c-6.81,0.42-12.65,3.47-15.46,7.59
						c1.66-5.53,8.53-10,16.88-10.52C1065.21,283.71,1072.96,288.21,1073.87,294.49z"/>
				</g>
				<g>
					<path class="st67" d="M1054.21,318.31c-2.44-0.21-4.82-0.91-6.98-2.1c-6.05-3.34-9.53-9.91-9.79-18.5c0,0,0,0,0,0
						c-0.23-7.66,7.88-14.17,18.46-14.82c4.94-0.31,9.64,0.76,13.24,2.99c3.78,2.34,5.93,5.71,6.05,9.47
						c0.58,7.98-2.12,14.72-7.62,19C1063.71,317.35,1058.86,318.71,1054.21,318.31z M1039.92,297.55
						c0.23,7.53,3.22,13.26,8.43,16.14c5.5,3.04,12.66,2.38,17.83-1.63c4.73-3.68,7.04-9.52,6.53-16.45c0-0.02,0-0.05,0-0.07
						c-0.08-2.77-1.79-5.33-4.8-7.2c-3.2-1.99-7.44-2.93-11.92-2.65C1047.1,286.22,1039.75,291.66,1039.92,297.55L1039.92,297.55z"
						/>
				</g>
				<g>
					<path class="st67" d="M1038.72,296.92c-0.45-0.04-0.81-0.45-0.81-0.98c-0.01-0.56,0.39-1.03,0.89-1.05l35.06-1.41
						c0.5-0.02,0.91,0.42,0.92,0.98c0.01,0.56-0.39,1.03-0.89,1.05l-35.06,1.41C1038.78,296.92,1038.75,296.92,1038.72,296.92z"/>
				</g>
			</g>
		</g>
		<g>
			<g>
				<g>
					<g>
						<g>
							<path class="st92" d="M770.1,285.71c0,0,16.83,41.24,66.68,36.73c0,0,67.88-3.99,54.26-76.96L770.1,285.71z"/>
						</g>
					</g>
					<g class="st33">
						<g>
							<path class="st93" d="M891.04,245.48l-0.86,0.29c8.79,67.07-55.24,70.83-55.24,70.83c-38.38,3.47-57.19-20.17-63.81-31.23
								l-1.04,0.35c0,0,16.83,41.24,66.68,36.73C836.78,322.44,904.66,318.45,891.04,245.48z"/>
						</g>
					</g>
					<g>
						<g>
							<path class="st93" d="M827.92,324.06c-8.19-0.14-15.92-1.57-23.05-4.25c-7.76-2.92-14.83-7.33-21.01-13.1
								c-10.52-9.83-14.78-20.08-14.96-20.51c-0.14-0.33-0.13-0.7,0.02-1.03c0.15-0.32,0.43-0.57,0.76-0.68l120.94-40.23
								c0.35-0.12,0.74-0.08,1.06,0.11c0.32,0.19,0.54,0.51,0.61,0.87c4.29,23.01,1.02,41.64-9.74,55.39
								c-8.66,11.07-20.62,16.76-29.14,19.58c-9.04,3-16.04,3.48-16.56,3.51C833.83,324,830.85,324.11,827.92,324.06z
								 M771.87,286.48c1.47,3.01,5.79,10.93,13.83,18.42c13.56,12.62,30.71,18.09,50.96,16.25c0.01,0,0.03,0,0.04,0
								c0.07,0,7.1-0.45,16-3.41c8.16-2.72,19.61-8.17,27.85-18.71c10.04-12.85,13.23-30.29,9.48-51.85L771.87,286.48z"/>
						</g>
					</g>
				</g>
				<g>
					<g>
						
							<ellipse transform="matrix(0.9683 -0.2496 0.2496 0.9683 -39.037 215.2022)" class="st92" cx="828.9" cy="261.5" rx="64.17" ry="45.57"/>
					</g>
				</g>
				<g class="st33">
					<g>
						<path class="st93" d="M773.9,275.32c0,0-8.26-23.2,21.31-41.97c29.57-18.77,52.49-13.04,68.86-7.77
							c16.36,5.27,20.28,27.74,20.28,27.74S826.5,195.4,773.9,275.32z"/>
					</g>
				</g>
				<g>
					<g>
						<path class="st94" d="M884.44,253.66c-0.19,18.77-19.14,37.83-46.04,44.76c-30.09,7.76-58.81-2.58-64.5-23.1
							c0.39-19,18.67-38.26,44.93-45.58c30.2-8.42,59.54,2.14,65.52,23.59C884.38,253.43,884.41,253.55,884.44,253.66z"/>
					</g>
				</g>
				<g class="st95">
					<g>
						
							<ellipse transform="matrix(0.9598 -0.2806 0.2806 0.9598 -37.4475 241.7247)" class="st6" cx="825.31" cy="251.62" rx="39.22" ry="20.23"/>
					</g>
				</g>
				<g class="st88">
					<g>
						<path class="st93" d="M884.35,253.32c-0.61-2.18-1.46-4.25-2.53-6.2c-2.15,17.7-20.45,35.04-45.82,41.58
							c-26.8,6.91-52.51-0.54-61.83-16.75c-0.15,1.12-0.23,2.24-0.26,3.36c5.69,20.52,34.41,30.86,64.5,23.1
							c26.9-6.93,45.85-26,46.04-44.76C884.41,253.55,884.38,253.43,884.35,253.32z"/>
					</g>
				</g>
				<g class="st96">
					<g>
						<path class="st6" d="M818.43,220.61c33.22-8.56,65.12,2.95,72.83,25.8c-0.07-0.31-0.14-0.62-0.22-0.93
							c-6.28-24.37-39.2-36.96-73.52-28.11c-34.32,8.85-57.05,35.78-50.77,60.15c0.2,0.78,0.43,1.55,0.69,2.31
							C761.97,255.71,784.55,229.35,818.43,220.61z"/>
					</g>
				</g>
				<g class="st33">
					<g>
						<path class="st93" d="M891.04,245.48c-0.42-1.63-0.96-3.2-1.61-4.71c2.73,23.14-19.3,47.46-51.58,55.79
							c-32.03,8.26-62.84-2.16-71.91-23.4c0.17,1.46,0.44,2.92,0.81,4.36c6.28,24.37,39.2,36.96,73.52,28.11
							C874.6,296.78,897.33,269.85,891.04,245.48z"/>
					</g>
				</g>
				<g>
					<g>
						<path class="st93" d="M826.76,221.13c2.76-0.53,5.56-0.89,8.37-1.11c0.7-0.04,1.41-0.11,2.11-0.14l2.12-0.08l2.12,0
							c0.71,0,1.41,0.04,2.12,0.06c5.65,0.26,11.3,1.19,16.71,3.01c2.7,0.9,5.34,2.03,7.86,3.42c2.51,1.39,4.91,3.01,7.07,4.93
							c2.16,1.92,4.12,4.09,5.71,6.54c1.59,2.44,2.82,5.13,3.62,7.94c0.8,2.81,1.14,5.76,1.04,8.67c-0.1,2.92-0.65,5.81-1.52,8.57
							c-0.88,2.77-2.1,5.4-3.56,7.88c-1.46,2.48-3.16,4.81-5.03,6.98c-1.87,2.17-3.91,4.18-6.07,6.04
							c-0.55,0.46-1.08,0.94-1.64,1.37l-1.68,1.32l-1.73,1.25c-0.58,0.42-1.18,0.8-1.77,1.2c-4.76,3.13-9.87,5.69-15.17,7.73
							c-5.32,2.01-10.82,3.5-16.44,4.4c-5.61,0.91-11.32,1.23-17.01,0.9c-2.84-0.18-5.68-0.52-8.49-1.04
							c-2.81-0.52-5.58-1.26-8.29-2.19c-2.71-0.94-5.35-2.09-7.87-3.48c-2.52-1.39-4.92-3.03-7.08-4.96
							c-2.17-1.92-4.11-4.12-5.71-6.56c-1.6-2.44-2.83-5.12-3.63-7.93c-0.42-1.4-0.7-2.84-0.87-4.28c-0.1-0.72-0.14-1.45-0.19-2.18
							c-0.02-0.73-0.05-1.46,0-2.18c0.01-0.73,0.09-1.45,0.15-2.18c0.1-0.72,0.17-1.44,0.32-2.15c0.25-1.43,0.61-2.83,1.05-4.21
							c0.88-2.75,2.13-5.36,3.58-7.82c1.49-2.44,3.19-4.75,5.09-6.86c1.9-2.11,3.94-4.09,6.14-5.87c2.19-1.78,4.49-3.43,6.9-4.89
							c0.09-0.05,0.2-0.02,0.25,0.06c0.05,0.08,0.03,0.19-0.05,0.24c-2.25,1.66-4.43,3.41-6.46,5.31c-2.03,1.9-3.95,3.92-5.68,6.07
							c-3.48,4.29-6.3,9.13-7.84,14.35c-1.57,5.2-1.75,10.8-0.21,15.96c0.75,2.58,1.91,5.03,3.4,7.27c1.49,2.24,3.31,4.26,5.35,6.04
							c4.09,3.56,8.99,6.18,14.16,7.97c5.18,1.81,10.64,2.77,16.14,3.15c5.5,0.34,11.05,0.05,16.5-0.81
							c5.46-0.86,10.83-2.29,16.01-4.22c2.59-0.97,5.12-2.1,7.59-3.33l1.84-0.96l1.8-1.02c0.61-0.33,1.18-0.71,1.77-1.07l0.88-0.55
							c0.29-0.18,0.57-0.38,0.86-0.57c0.57-0.39,1.15-0.76,1.71-1.17l1.67-1.22l1.62-1.28c0.55-0.42,1.05-0.89,1.58-1.33
							c2.07-1.81,4.03-3.75,5.81-5.83c3.57-4.15,6.44-8.92,8.09-14.08c0.82-2.58,1.32-5.25,1.4-7.94c0.09-2.69-0.24-5.37-0.94-7.96
							c-0.71-2.59-1.82-5.06-3.26-7.33c-1.45-2.27-3.25-4.32-5.26-6.13c-2.02-1.82-4.24-3.41-6.61-4.78
							c-2.37-1.36-4.88-2.51-7.46-3.46c-5.18-1.89-10.65-2.99-16.18-3.49c-2.77-0.25-5.55-0.33-8.34-0.27
							c-2.79,0.06-5.57,0.28-8.35,0.6c-0.1,0.01-0.19-0.06-0.2-0.16C826.6,221.24,826.66,221.15,826.76,221.13z"/>
					</g>
				</g>
				<g>
					<g>
						<path class="st93" d="M816.89,309.75c-8.63-0.15-16.89-1.66-24.35-4.51c-14.29-5.46-23.89-15.19-27.03-27.39
							c-3.15-12.2,0.55-25.36,10.42-37.05c9.76-11.56,24.42-20.32,41.27-24.67c16.86-4.35,33.92-3.76,48.06,1.64
							c14.29,5.46,23.89,15.19,27.03,27.39c3.15,12.2-0.55,25.36-10.42,37.05c-9.76,11.56-24.42,20.32-41.27,24.67
							C832.63,308.93,824.62,309.89,816.89,309.75z M840.81,215.85c-7.38-0.13-15.13,0.75-22.97,2.77
							c-33.58,8.66-55.93,34.93-49.84,58.58c4.67,18.13,24.74,29.53,48.98,29.95c7.38,0.13,15.13-0.75,22.97-2.77
							c33.58-8.66,55.93-34.93,49.84-58.58C885.12,227.68,865.05,216.28,840.81,215.85z"/>
					</g>
				</g>
				<g>
					<g>
						<g>
							<path class="st92" d="M809.95,320.15L809.95,320.15c-0.28,0.41-11.18,16-29.92,9.68c-5.69-1.92-10.36-6.09-12.73-11.62
								c-2.8-6.56-3.89-16.63,5.21-28.83c0,0,1.75,2.55,5.1,5.55c1.6,1.43,3.56,2.97,5.87,4.38c0,0-9,3.26-6.3,14.72
								c3.02,12.8,23.44,14.27,32.52,6.33c0.06-0.05,0.12-0.11,0.18-0.16c0.01-0.01,0.02-0.02,0.03-0.03L809.95,320.15z"/>
						</g>
					</g>
					<g>
						<g>
							<path class="st93" d="M788.32,332.61c-2.67-0.05-5.58-0.51-8.69-1.56c-6.11-2.06-11.03-6.56-13.5-12.33
								c-2.84-6.65-4.22-17.27,5.36-30.11c0.25-0.33,0.64-0.53,1.06-0.52c0,0,0,0,0,0c0.42,0.01,0.8,0.22,1.04,0.56
								c0.04,0.05,3.77,5.39,10.58,9.56c0.42,0.26,0.66,0.74,0.61,1.23c-0.05,0.49-0.38,0.91-0.84,1.08
								c-0.32,0.12-7.88,3.06-5.48,13.21c1.02,4.35,4.44,7.62,9.61,9.22c7.32,2.26,16.16,0.68,21.03-3.76
								c0.48-0.44,1.22-0.45,1.71-0.02c0.49,0.43,0.59,1.16,0.22,1.7c-0.12,0.17-2.95,4.28-8.22,7.61
								C799.39,330.63,794.47,332.72,788.32,332.61z M772.56,291.54c-7.75,11.23-6.53,20.38-4.06,26.17
								c2.18,5.1,6.54,9.07,11.95,10.9c7.45,2.51,14.48,1.75,20.9-2.26c0.46-0.29,0.91-0.59,1.33-0.89
								c-4.86,1.41-10.44,1.48-15.38-0.05c-6.08-1.88-10.12-5.82-11.36-11.09c-2.07-8.77,2.28-13.23,5.05-15.1
								C776.83,296.36,774,293.29,772.56,291.54z"/>
						</g>
					</g>
				</g>
			</g>
			<g>
				<g>
					<g>
						<path class="st71" d="M844.96,274.82c-4.51,2.46-6.83,7.34-6.39,11.98c-2.37-4.06-7.15-6.8-12.31-6.34
							c-14.96,0.09-28-0.28-32.03-16.63c-2.73-20.82,23.01-29.22,33-12.09c-1.88-19.58,24.24-26.83,34.26-8.2
							C867.82,259.2,857.31,266.67,844.96,274.82z"/>
					</g>
				</g>
				<g>
					<g>
						<path class="st72" d="M837.73,284.21c-0.98-11.07,14.42-17.94,20.35-29c1.58-2.94,1.68-7.08-0.04-10.67
							c-6-12.55-28.5-8.64-30.82,7.2c-11.24-11.75-32.04-2.59-29.58,11.02c0.71,3.9,3.23,7.25,6.26,8.8
							C815.31,277.39,832.02,274.57,837.73,284.21z"/>
					</g>
				</g>
				<g>
					<g>
						<path class="st73" d="M828.68,257.09c-2.57-1.84-5.1-2.92-7.49-3.32c-2.4-0.44-4.67-0.24-6.78,0.38
							c-2.1,0.67-4.08,1.75-5.75,3.37c-0.83,0.82-1.59,1.78-2.12,2.95c-0.26,0.58-0.47,1.23-0.51,1.82c-0.02,0.29,0,0.55,0.03,0.7
							c0.04,0.16,0.07,0.25,0.18,0.43c0.1,0.17,0.29,0.4,0.5,0.61c0.2,0.21,0.52,0.44,0.8,0.65c0.56,0.42,1.14,0.76,1.74,1.05
							c1.2,0.61,2.43,1.05,3.67,1.46c2.47,0.82,4.95,1.46,7.46,2.25c2.51,0.76,5.04,1.63,7.62,2.85c1.29,0.64,2.59,1.33,3.89,2.25
							c1.3,0.91,2.61,2.03,3.82,3.52c-1.27-1.17-2.54-1.96-3.8-2.58c-1.26-0.62-2.5-1.09-3.74-1.46c-2.48-0.78-4.92-1.27-7.37-1.78
							c-2.45-0.48-4.91-0.97-7.44-1.67c-1.27-0.36-2.55-0.79-3.9-1.43c-0.67-0.31-1.38-0.72-2.09-1.24
							c-0.36-0.28-0.69-0.5-1.11-0.91c-0.41-0.39-0.84-0.88-1.27-1.6c-0.43-0.7-0.82-1.68-1-2.58c-0.19-0.9-0.2-1.67-0.15-2.3
							c0.05-0.63,0.16-1.15,0.3-1.6c0.13-0.46,0.29-0.87,0.47-1.23c0.71-1.45,1.58-2.47,2.53-3.31c1.9-1.65,4.06-2.62,6.38-3.02
							c2.31-0.41,4.8-0.22,7.38,0.66C823.5,252.94,826.17,254.56,828.68,257.09z"/>
					</g>
				</g>
				<g>
					<g>
						<path class="st73" d="M828.93,257.02c0.57-3.46,1.81-6.26,3.39-8.42c1.6-2.14,3.53-3.67,5.67-4.6
							c2.14-0.95,4.49-1.35,7.03-1.03c1.27,0.17,2.59,0.53,4.03,1.33c0.36,0.2,0.73,0.45,1.11,0.75c0.38,0.3,0.78,0.66,1.19,1.15
							c0.41,0.49,0.85,1.12,1.23,1.97c0.38,0.84,0.64,1.86,0.7,2.67c0.07,0.82-0.01,1.46-0.11,2.01c-0.11,0.57-0.25,0.93-0.38,1.36
							c-0.28,0.82-0.62,1.55-0.98,2.17c-0.73,1.26-1.54,2.32-2.36,3.31c-1.66,1.97-3.4,3.72-5.13,5.46
							c-1.71,1.78-3.44,3.51-5.01,5.52c-0.8,0.99-1.54,2.06-2.21,3.26c-0.67,1.2-1.25,2.55-1.6,4.21c0.11-1.89,0.54-3.52,1.07-4.99
							c0.53-1.47,1.19-2.75,1.88-3.99c1.41-2.41,2.98-4.53,4.59-6.53c1.6-2.04,3.26-3.92,4.81-5.96c0.77-1.02,1.53-2.06,2.15-3.22
							c0.32-0.57,0.6-1.17,0.81-1.83c0.1-0.33,0.22-0.69,0.27-0.98c0.05-0.29,0.07-0.58,0.05-0.78c-0.02-0.21-0.05-0.3-0.11-0.45
							c-0.06-0.15-0.2-0.37-0.39-0.6c-0.38-0.46-0.94-0.89-1.49-1.22c-1.13-0.67-2.32-1.04-3.48-1.26
							c-2.34-0.42-4.59-0.22-6.71,0.39c-2.11,0.65-4.09,1.74-5.8,3.42C831.4,251.82,829.96,254.09,828.93,257.02z"/>
					</g>
				</g>
				<g>
					<g>
						<path class="st73" d="M829.95,260.59c-0.69-0.39-1.38-0.78-2.11-1.08c-0.36-0.17-0.73-0.29-1.09-0.43
							c-0.37-0.12-0.74-0.25-1.12-0.33c-0.75-0.2-1.52-0.32-2.28-0.35c-0.76-0.04-1.53,0-2.26,0.16c-0.73,0.16-1.44,0.42-2.04,0.8
							c-0.61,0.38-1.09,0.92-1.33,1.53c-0.12,0.3-0.16,0.63-0.16,0.95c0.03,0.32,0.1,0.65,0.24,0.96c0.27,0.63,0.77,1.17,1.32,1.65
							l-0.04-0.03c1.18,0.83,2.51,1.5,3.84,2.15c1.33,0.65,2.71,1.25,4.06,1.89c1.36,0.64,2.72,1.3,4.01,2.09
							c0.64,0.4,1.27,0.84,1.84,1.35c0.29,0.25,0.55,0.53,0.79,0.83c0.23,0.3,0.42,0.63,0.57,0.98c-0.38-0.65-0.94-1.16-1.53-1.58
							c-0.6-0.43-1.24-0.8-1.91-1.13c-1.32-0.67-2.71-1.22-4.09-1.79c-1.39-0.55-2.78-1.12-4.16-1.74
							c-1.38-0.62-2.74-1.31-4.03-2.18l-0.02-0.01l-0.02-0.02c-0.64-0.55-1.24-1.21-1.6-2.04c-0.19-0.41-0.29-0.87-0.32-1.34
							c0-0.47,0.07-0.94,0.25-1.37c0.37-0.86,1.04-1.52,1.79-1.95c0.75-0.44,1.57-0.7,2.39-0.83c1.65-0.25,3.32-0.02,4.85,0.52
							c0.76,0.27,1.5,0.6,2.19,1.01C828.68,259.63,829.33,260.11,829.95,260.59z"/>
					</g>
				</g>
				<g>
					<g>
						<path class="st73" d="M829.95,260.59c0.23-0.75,0.48-1.51,0.84-2.22c0.16-0.37,0.37-0.71,0.56-1.06
							c0.22-0.33,0.42-0.68,0.67-1c0.96-1.29,2.22-2.4,3.74-3.08c0.76-0.34,1.58-0.56,2.44-0.6c0.85-0.03,1.77,0.14,2.54,0.64
							c0.39,0.24,0.71,0.59,0.98,0.97c0.11,0.2,0.25,0.4,0.32,0.61c0.04,0.11,0.09,0.21,0.12,0.32l0.08,0.33
							c0.2,0.88,0.11,1.77-0.11,2.58l-0.01,0.03l-0.01,0.02c-0.54,1.43-1.26,2.75-2.03,4.02c-0.77,1.27-1.58,2.5-2.4,3.72
							c-0.8,1.23-1.61,2.44-2.3,3.72c-0.35,0.64-0.66,1.29-0.9,1.98c-0.24,0.68-0.4,1.4-0.32,2.14c-0.09-0.36-0.12-0.73-0.11-1.11
							c0.02-0.37,0.07-0.75,0.16-1.11c0.16-0.73,0.43-1.43,0.72-2.12c0.6-1.37,1.32-2.66,2.07-3.93c0.74-1.28,1.51-2.52,2.23-3.79
							c0.71-1.27,1.41-2.54,1.89-3.88l-0.02,0.05c0.17-0.71,0.26-1.43,0.11-2.09l-0.06-0.24c-0.02-0.08-0.06-0.15-0.09-0.23
							c-0.05-0.16-0.15-0.29-0.22-0.44c-0.19-0.26-0.4-0.51-0.68-0.68c-0.54-0.37-1.24-0.54-1.96-0.54
							c-0.72,0.01-1.44,0.17-2.14,0.44c-0.7,0.27-1.35,0.64-1.97,1.09c-0.62,0.44-1.18,0.97-1.69,1.55
							c-0.27,0.28-0.49,0.59-0.74,0.89c-0.22,0.32-0.45,0.63-0.65,0.97C830.63,259.17,830.29,259.88,829.95,260.59z"/>
					</g>
				</g>
				<g>
					<g>
						<path class="st73" d="M812.51,258.31c-0.38,0.68-0.61,1.38-0.6,2.02c0,0.64,0.25,1.22,0.63,1.76c0.38,0.54,0.9,1.03,1.44,1.51
							c0.55,0.48,1.14,0.94,1.72,1.47c-0.78-0.13-1.51-0.4-2.2-0.77c-0.69-0.38-1.34-0.88-1.84-1.58c-0.24-0.35-0.45-0.74-0.56-1.17
							c-0.11-0.43-0.13-0.89-0.04-1.31C811.26,259.38,811.81,258.68,812.51,258.31z"/>
					</g>
				</g>
				<g>
					<g>
						<path class="st71" d="M861.37,236.83c0.59,0.17,1.17,0.42,1.72,0.71c0.55,0.29,1.08,0.62,1.59,0.99
							c1.02,0.73,1.95,1.61,2.76,2.61c1.62,1.99,2.7,4.49,3.01,7.09c0.06,0.65,0.12,1.3,0.1,1.95c0,0.65-0.07,1.29-0.14,1.93
							l-0.17,0.95c-0.03,0.16-0.05,0.32-0.09,0.47l-0.12,0.46c-0.09,0.31-0.16,0.61-0.25,0.92l-0.32,0.89
							c-0.9,2.36-2.23,4.49-3.94,6.26c0.17-0.6,0.35-1.18,0.55-1.74c0.17-0.58,0.35-1.15,0.52-1.71l0.23-0.85
							c0.07-0.29,0.18-0.56,0.23-0.85c0.12-0.57,0.29-1.12,0.38-1.69l0.16-0.84l0.12-0.84l0.06-0.42l0.04-0.42l0.07-0.84
							c0.01-0.56,0.06-1.11,0.02-1.66c0.01-0.55-0.06-1.1-0.11-1.64c-0.26-2.17-0.97-4.26-2.08-6.23c-0.55-0.98-1.19-1.93-1.92-2.84
							C863.05,238.57,862.26,237.69,861.37,236.83z"/>
					</g>
				</g>
				<g>
					<g>
						<path class="st71" d="M789.63,258.48c-0.47,2.41-0.59,4.76-0.33,7c0.26,2.24,0.96,4.35,2.03,6.26l0.42,0.71
							c0.14,0.24,0.31,0.46,0.46,0.69l0.23,0.35l0.26,0.33c0.17,0.22,0.34,0.45,0.52,0.66c0.37,0.43,0.73,0.86,1.13,1.27
							c0.38,0.42,0.8,0.81,1.22,1.21c0.41,0.41,0.87,0.77,1.3,1.17l1.36,1.13c0.47,0.36,0.94,0.73,1.42,1.11
							c0.49,0.35,0.97,0.73,1.45,1.13c-2.42-0.5-4.74-1.48-6.84-2.88l-0.78-0.54c-0.26-0.18-0.49-0.4-0.74-0.6
							c-0.51-0.39-0.95-0.85-1.41-1.3c-0.23-0.22-0.43-0.48-0.64-0.72l-0.32-0.37l-0.29-0.39c-0.19-0.27-0.39-0.52-0.56-0.8
							l-0.51-0.83c-0.3-0.58-0.61-1.16-0.84-1.78c-0.13-0.3-0.23-0.61-0.33-0.93l-0.15-0.47c-0.04-0.16-0.08-0.32-0.12-0.48
							c-0.31-1.27-0.43-2.59-0.36-3.87c0.07-1.29,0.3-2.55,0.71-3.75C788.31,260.6,788.85,259.45,789.63,258.48z"/>
					</g>
				</g>
			</g>
		</g>
	</g>
</g>
</svg>
